<?xml version="1.0" encoding="utf-8"?>
<!-- Generator: Adobe Illustrator 23.0.1, SVG Export Plug-In . SVG Version: 6.00 Build 0)  -->
<svg version="1.1" id="Layer_1" xmlns="http://www.w3.org/2000/svg" xmlns:xlink="http://www.w3.org/1999/xlink" x="0px" y="0px"
	 viewBox="0 0 200 200" style="enable-background:new 0 0 200 200;" xml:space="preserve">
<g>
	<path d="M95,199c-4-0.7-8.1-1-11.9-2.1c-29-8.2-47.4-26.8-53.4-56.5c-6.4-32.1,9.8-63.3,39.2-77.7c3.5-1.7,7.2-3,10.8-4.5
		c0.2-2.3,0.5-4.6,0.6-7c0-0.5-0.5-1.1-0.9-1.6C73.7,43,68,36.3,62.2,29.6c-3.7-4.3-3.6-8.6,0.3-12.7c3.4-3.5,6.8-7,10.1-10.7
		C74.7,4,76.9,2,79.9,1c13.4,0,26.8,0,40.2,0c3,1,5.3,3,7.4,5.3c3.4,3.7,6.9,7.3,10.4,10.9c3.3,3.5,3.5,7.9,0.4,11.7
		c-1.3,1.7-2.7,3.3-4.1,4.9c-1.3,1.4-3,1.7-4.3,0.7c-1.4-1.1-1.4-2.8-0.1-4.4c1-1.2,2-2.4,3.4-4c-2.2,0-3.9,0-5.7,0
		c-3.5,0-7.1,0-10.6,0c-0.9,0-1.5,0-1.8,1.2c-1.7,6.7-3.5,13.3-5.3,20.2c2.7,0,5.3,0.9,7.1-2.1c1-1.7,2.5-3.1,3.9-4.6
		c1.3-1.4,2.8-1.5,4.1-0.5c1.3,1.1,1.5,2.8,0.2,4.3c-1.5,1.8-3.1,3.5-4.5,5.3c-0.4,0.6-0.5,1.5-0.5,2.2c0,2,0.2,4.1,0.3,5.6
		c5.8,2.8,11.7,5,17,8.3c19.8,12.3,31.4,30.1,34.1,53.4c4.3,37.5-21.6,71.9-59,78.4c-2.4,0.4-4.8,0.7-7.2,1.1
		C101.7,199,98.3,199,95,199z M34,127.1c0.2,3.1,0.3,6.3,0.8,9.4c5.1,36.4,39.6,61.8,75.9,55.8c34.7-5.7,59.1-37.6,54.7-72.6
		c-3.3-26.4-17.9-44.4-42.6-54.3c-2.7-1.1-5.4-1.6-8.5-1.5c-9.5,0.4-18.9,0.1-28.4,0.1c-1.3,0-2.7-0.4-3.9,0
		C53.8,71.7,34.2,97.6,34,127.1z M109.3,26.2c-6.2,0-12.3,0-18.5,0c1.4,5.4,2.8,10.7,4.2,16c1.4,5.5,1.4,5.5,7.1,5.3
		c0.2,0,0.4,0.1,0.6,0c0.4-0.3,1.1-0.6,1.2-1C105.7,39.8,107.5,33.1,109.3,26.2z M90.4,47.6c-1.9-7-3.6-13.7-5.5-20.4
		c-0.1-0.5-1.1-1-1.6-1c-5-0.1-10.1,0-15.1,0c-0.3,0-0.7,0.1-1.1,0.3c5.9,6.9,11.7,13.7,17.5,20.4c0.3,0.4,0.9,0.7,1.4,0.8
		C87.4,47.7,88.7,47.6,90.4,47.6z M85.8,58.1c9.6,0,19,0,28.4,0c0-1.6,0-3.1,0-4.6c-9.5,0-18.9,0-28.4,0
		C85.8,55.1,85.8,56.5,85.8,58.1z M107.6,20.2c-2.6-3.8-5-7.3-7.5-11.1c-2.6,3.8-5,7.3-7.5,11.1C97.6,20.2,102.4,20.2,107.6,20.2z
		 M87.1,17.7c2.5-3.6,4.8-7.1,7.3-10.7c-4.6,0-9,0-13.6,0C83,10.7,85,14.1,87.1,17.7z M105.6,6.9c2.5,3.7,4.9,7.2,7.3,10.8
		c2.1-3.7,4.2-7.1,6.3-10.8C114.5,6.9,110.2,6.9,105.6,6.9z M76.3,10.8c-3,3.2-5.8,6.1-8.9,9.4c5,0,9.6,0,14.4,0
		C80,17,78.2,14,76.3,10.8z M118.2,20.1c4.9,0,9.4,0,14.3,0c-3.1-3.2-5.9-6.2-8.9-9.3C121.8,14,120.1,17,118.2,20.1z"/>
	<path d="M154.9,26.4c-1.2,0-2.4,0.1-3.7,0c-1.9-0.1-2.9-1.3-2.9-2.9c0-1.7,1.1-2.8,3-2.8c2.5-0.1,5-0.1,7.5,0
		c1.8,0.1,2.8,1.2,2.8,2.8c0,1.6-1,2.8-2.7,2.9C157.6,26.4,156.2,26.3,154.9,26.4C154.9,26.4,154.9,26.4,154.9,26.4z"/>
	<path d="M154.5,41.5c-0.5,0.7-1,1.9-1.8,2.2c-0.8,0.3-2.3,0.2-3-0.3c-2.1-1.8-4-3.8-5.9-5.8c-1-1.1-0.9-2.5,0.1-3.7
		c1-1.1,2.5-1.4,3.6-0.4c2.2,1.9,4.2,4.1,6.3,6.2C154.1,40,154.2,40.6,154.5,41.5z"/>
	<path d="M145.6,14.2c-0.7-0.5-1.7-1-2.1-1.8c-0.4-0.8-0.4-2.3,0.1-2.8c1.9-2.2,4-4.3,6.2-6.3c1.1-0.9,2.5-0.7,3.5,0.4
		c1,1,1.3,2.5,0.4,3.5c-2,2.3-4.2,4.3-6.4,6.4C147.1,13.9,146.5,13.9,145.6,14.2z"/>
	<path d="M56.8,11.5c-0.6,0.7-1.1,1.8-1.9,2.1c-0.9,0.3-2.3,0.3-3-0.3c-2.1-1.8-4.1-3.8-5.9-5.8c-1.1-1.2-0.9-2.7,0.2-3.8
		c1.1-1.1,2.6-1.2,3.7-0.2c2.1,1.9,4.1,3.9,6,6C56.4,9.9,56.5,10.6,56.8,11.5z"/>
	<path d="M44.8,20.6c1.4,0,2.7-0.1,4,0c1.6,0.1,2.5,1.1,2.5,2.6c0.1,1.5-0.7,2.8-2.2,2.9c-2.9,0.2-5.9,0.2-8.8,0
		c-1.6-0.1-2.4-1.4-2.2-3.1c0.1-1.6,1.1-2.4,2.7-2.5C42.1,20.6,43.5,20.6,44.8,20.6C44.8,20.6,44.8,20.6,44.8,20.6z"/>
	<path d="M56.9,35.6c-0.5,1-0.7,1.7-1.2,2.3c-1.7,1.8-3.5,3.6-5.3,5.3c-1.3,1.2-3,1.2-4.2,0.1c-1.1-1.1-1.1-2.8,0-4
		c1.8-1.9,3.5-3.8,5.5-5.4c0.7-0.6,2.2-0.8,3.1-0.5C55.7,33.5,56.2,34.7,56.9,35.6z"/>
	<path d="M42.7,127.4C43,97,66.7,72.9,95.4,70.4c28.6-2.5,56.2,18.4,60.8,46.7c0.4,2.5-0.3,3.9-2.1,4.2c-1.9,0.3-3.1-0.7-3.6-3.3
		c-1.9-10.2-6.3-19.3-13.7-26.5c-14.6-14.4-32.2-19.1-51.7-13c-19.3,5.9-31.4,19.5-35.2,39.3c-5.6,28.8,14,55.9,42.9,60.2
		c27.7,4.2,54.4-16,58.1-43.7c0.1-0.6,0.2-1.3,0.3-1.9c0.3-2.2,1.5-3.4,3.3-3.1c1.7,0.2,2.7,1.6,2.5,3.7c-0.7,6.2-2.2,12.1-4.8,17.8
		c-10.4,22.9-33.7,35.9-59.2,33.1c-23.7-2.6-43.8-21.4-48.7-45.4C43.4,134.8,43.2,131.1,42.7,127.4z"/>
</g>
</svg>
