<svg xmlns="http://www.w3.org/2000/svg" width="74" height="78" viewBox="0 0 74 78" fill="none"><path d="M28.8191 66.9407C26.8111 66.6651 24.5353 65.4111 24.3568 63.4268C24.1337 60.9464 24.803 55.1589 21.9025 51.7139C19.0021 48.2689 8.06945 37.3828 18.4815 23.1895C20.8614 20.3876 28.2241 14.77 37.1487 14.7148C46.0733 14.6597 52.8164 20.3416 55.0723 23.1895C56.9316 25.601 60.0552 31.4574 59.609 36.4182C59.0647 42.4686 57.9728 44.4794 51.7999 51.7139C50.5852 53.5742 48.3045 58.3007 48.8994 62.3244C49.6432 63.9091 47.1587 66.9407 44.8834 66.9407M28.8191 66.9407V71.488M28.8191 66.9407C33.0174 67.0158 39.9037 66.968 43.2472 66.9481M44.8834 66.9407C44.8834 68.6402 44.8834 72.4802 44.8834 74.244C44.8834 76.0078 42.4043 76.8163 41.1648 77H31.7196C29.6372 76.5039 28.9183 74.956 28.8191 74.244V71.488M44.8834 66.9407C44.5587 66.9407 43.9905 66.9437 43.2472 66.9481M28.8191 71.488H40.4211M30.3809 62.3244L30.6784 47.1665C30.6784 46.9237 30.9439 46.467 31.9427 46.3617M41.7598 46.3397C39.2064 46.3397 33.7574 46.3397 32.389 46.3397C32.2261 46.3397 32.0777 46.3475 31.9427 46.3617M41.7598 46.3397C42.2556 46.3627 43.2472 46.698 43.2472 47.8555C43.2472 48.2022 43.2472 49.5264 43.2472 51.3694M41.7598 46.3397C41.2313 45.0634 41.1828 43.7163 41.4191 42.4124M43.2472 66.9481C43.2472 62.828 43.2472 55.6797 43.2472 51.3694M30.6784 51.3694H43.2472M31.9427 46.3617C31.996 45.3467 31.9729 43.913 31.7844 42.4124M36.7769 24.4986L28.6704 35.7292C30.5791 36.8255 31.4468 39.7261 31.7844 42.4124M36.7769 24.4986L44.9578 35.7292C43.756 36.9994 41.9277 39.6058 41.4191 42.4124M36.7769 24.4986L36.6281 36.0048M31.7844 42.4124H41.4191M13.4944 54.7455L10.3708 57.777M6.05727 36.4182H1M15.802 16.4354L12.0834 12.7148M36.6281 6.99426V1M58.0492 16.4354L61.7678 12.7148M68.0171 36.4182C68.0171 36.4182 71.0541 36.4182 73 36.4182M60.2824 54.7455L63.5548 57.777" stroke="#F3255F" stroke-opacity="0.7" stroke-width="2" stroke-linecap="round" stroke-linejoin="round"></path></svg>