<?xml version="1.0" encoding="utf-8"?>
<!-- Generator: Adobe Illustrator 23.0.1, SVG Export Plug-In . SVG Version: 6.00 Build 0)  -->
<svg version="1.1" id="Layer_3_xA0_Image_1_" xmlns="http://www.w3.org/2000/svg" xmlns:xlink="http://www.w3.org/1999/xlink"
	 x="0px" y="0px" viewBox="0 0 200 200" style="enable-background:new 0 0 200 200;" xml:space="preserve">
<style type="text/css">
	.st0{fill:#030302;}
	.st1{fill:#030303;}
	.st2{fill:#010101;}
	.st3{fill:#090909;}
	.st4{fill:#FD8F25;}
	.st5{fill:#F8983C;}
</style>
<g>
	<path class="st0" d="M89.5,197c-5.2-2.3-7.7-6.7-9.5-11.8c-1.1-3.3-2.4-6.5-3.6-9.8c-0.4-1-0.8-1.6-2-1.5c-4.7,0.3-7.6-2.2-9.3-6.3
		c-2.3-5.6-2.3-11.2-0.3-16.8c1.1-2.9,2.9-5.3,6-6.6c-3.5-5-7-9.9-10.1-15.1c-4.2-7-7.6-14.2-8.9-22.4c-2.9-19.5,6.2-38.7,23.1-49
		c29.1-17.7,67.2-1,73.9,32.3c2.4,11.9,0.1,23.1-5.4,33.7c-3.4,6.6-7.6,12.8-11.9,18.9c-0.8,1.1-1.2,1.7,0.4,2.6
		c2.1,1.1,3.3,3.1,4.2,5.2c2.2,5.9,2.2,11.8-0.2,17.5c-1.7,3.9-4.6,6.3-9.1,6c-1.1-0.1-1.7,0.3-2,1.4c-1.4,3.9-2.8,7.8-4.3,11.7
		c-1.7,4.5-4.4,8.2-9.1,10C104.2,197,96.9,197,89.5,197z M77.2,143.5c0.4,0.6,1,0.3,1.6,0.3c14.7,0,29.4,0,44.1,0
		c0.5,0,1.2,0.3,1.5-0.4c5.4-7.3,10.6-14.7,14.7-22.9c4.8-9.5,6.9-19.4,4.5-30c-5.3-24-28.4-38.8-52.5-33.6
		c-25.1,5.4-40.5,31.9-32,56.1C63.1,124.4,70.3,133.9,77.2,143.5z M100.5,168.5c8.7,0,17.5,0,26.2,0c2.1,0,3.5-0.8,4.3-2.7
		c1.9-4.6,1.9-9.2,0.1-13.8c-0.8-1.9-2.2-2.9-4.4-2.8c-17.3,0.1-34.7,0.1-52,0c-2.1,0-3.5,0.9-4.3,2.7c-1.9,4.6-1.9,9.2-0.1,13.8
		c0.8,1.9,2.2,2.8,4.4,2.8C83.3,168.4,91.9,168.5,100.5,168.5z M100.7,173.9c-5.8,0-11.5,0-17.3,0c-1.3,0-1.8,0.1-1.2,1.6
		c1.1,2.7,2.1,5.5,3.1,8.3c0.6,1.7,1.3,3.3,2.3,4.8c1.4,2.1,3.2,3.2,5.8,3.1c5-0.1,10-0.1,15,0c1.9,0,3.3-0.7,4.5-2.1
		c1.1-1.3,1.9-2.7,2.5-4.2c1.3-3.4,2.5-6.7,3.8-10.1c0.5-1.2,0.3-1.5-1-1.5C112.4,173.9,106.5,173.9,100.7,173.9z"/>
	<path class="st1" d="M100.2,3c1.5,0.8,2.1,2,2,3.8c-0.1,6.1,0,12.2,0,18.4c0,2.3-1,3.6-2.7,3.6c-1.7,0-2.7-1.3-2.7-3.6
		c0-6.1,0.1-12.2,0-18.4C96.7,5,97.3,3.8,99,3C99.4,3,99.8,3,100.2,3z"/>
	<path class="st2" d="M3.4,97.9c1-0.3,1.9-0.4,3-0.4c6.1,0,12.2,0,18.4,0c2.1,0,3.4,1.2,3.3,2.8c-0.2,1.6-1.1,2.6-2.7,2.6
		c-6.8,0-13.5,0-20.3,0c-0.5,0-1.1-0.3-1.6-0.4C3.4,100.9,3.4,99.4,3.4,97.9z"/>
	<path class="st3" d="M49.7,47.6c0,1.3-0.5,2.1-1.5,2.6c-1,0.5-2,0.4-2.8-0.3c-0.7-0.6-1.4-1.3-2-2c-4-4-8-8-12.1-12
		c-1.6-1.6-1.7-3-0.6-4.3c1.2-1.3,2.8-1.2,4.4,0.5c4.4,4.4,8.8,8.8,13.3,13.2C49.1,46,49.8,46.7,49.7,47.6z"/>
	<path class="st1" d="M168.9,33.7c0,0.7-0.4,1.4-1,2c-4.6,4.6-9.2,9.2-13.8,13.8c-1.4,1.4-3,1.4-4.2,0.2c-1.1-1.2-1.1-2.6,0.3-4
		c4.6-4.7,9.3-9.3,13.9-13.9c0.9-0.9,1.9-1.3,3.1-0.7C168.4,31.5,168.9,32.3,168.9,33.7z"/>
	<path class="st2" d="M183.7,102.9c-3.2,0-6.3,0-9.5,0c-2.1,0-3.2-1-3.2-2.6c0-1.7,1.2-2.8,3.3-2.8c6.3,0,12.6,0,19,0
		c2.2,0,3.3,1,3.3,2.8c0,1.7-1.1,2.6-3.2,2.6C190.2,103,186.9,102.9,183.7,102.9z"/>
	<path class="st4" d="M77.2,143.5c-6.9-9.6-14.1-19.1-18-30.4c-8.5-24.2,6.9-50.7,32-56.1c24.1-5.2,47.2,9.6,52.5,33.6
		c2.3,10.5,0.3,20.5-4.5,30c-4.1,8.1-9.4,15.5-14.7,22.9C108.7,143.4,92.9,143.5,77.2,143.5z M81,113.5C81,113.5,81,113.5,81,113.5
		c-2,0-3.9,0.1-5.9,0c-5-0.2-9.1-4.4-9.2-9.5c-0.2-5.3,3.6-9.7,8.7-10.3c3.3-0.4,3.7-0.8,3.9-4.1c0.6-10.9,9.3-19.9,20-20.9
		c11.3-1,21.4,6,24.1,16.8c0.5,2,1.3,3,3.4,3.4c6,1.3,10.3,7.1,9.7,12.9c-0.7,6.9-5.7,11.6-12.4,11.7c-2.1,0-4.3,0-6.5,0
		c-3.8,0-3.7,0-3.6,3.8c0,1,0.4,1.3,1.3,1.3c3.3-0.1,6.7,0,10-0.2c8.4-0.5,14.8-6.8,16-15.5c1-7.6-3.9-15.6-11.4-18.2
		c-1.4-0.5-2.1-1.2-2.5-2.6c-3.8-12.1-15.9-19.8-28.9-18.6c-12.2,1.1-22.7,11.1-24.3,23.3c-0.2,1.4-0.6,2.1-2.1,2.5
		c-6.7,1.8-11.3,8.6-10.7,15.4c0.7,7.4,6.3,13.2,13.6,13.8c3.5,0.3,7,0.2,10.4,0.2c4.2,0,3.4,0.9,3.6-3.8c0-1-0.3-1.3-1.3-1.3
		C85.1,113.6,83,113.5,81,113.5z M97.8,102.3c0.2,0.1,0.3,0.2,0.5,0.3c0,6.7,0,13.4,0,20.1c0,3.3,0,3.2,3.3,3.3
		c1.5,0,1.7-0.5,1.7-1.8c-0.1-6.8,0-13.5,0-20.3c0-0.4-0.3-1,0.6-1.5c0.9,1,1.8,2,2.7,3c2.5,2.5,2.5,2.5,5-0.1
		c0.8-0.8,0.8-1.2,0-1.9c-2.9-2.8-5.7-5.7-8.6-8.6c-1.6-1.6-2.8-1.6-4.4,0c-2.3,2.3-4.7,4.6-7,7c-2.7,2.7-2.6,2.6,0,5.3
		c0.8,0.8,1.2,0.7,1.9-0.1C94.9,105.3,96.4,103.9,97.8,102.3z"/>
	<path class="st5" d="M77.2,143.5c15.7,0,31.5,0,47.2,0c-0.3,0.7-1,0.4-1.5,0.4c-14.7,0-29.4,0-44.1,0
		C78.2,143.8,77.6,144,77.2,143.5z"/>
</g>
</svg>
