<?xml version="1.0" encoding="utf-8"?>
<!-- Generator: Adobe Illustrator 23.0.1, SVG Export Plug-In . SVG Version: 6.00 Build 0)  -->
<svg version="1.1" id="Layer_1" xmlns="http://www.w3.org/2000/svg" xmlns:xlink="http://www.w3.org/1999/xlink" x="0px" y="0px"
	 viewBox="0 0 200 200" style="enable-background:new 0 0 200 200;" xml:space="preserve">
<g>
	<path d="M199,131.7c-1.5,3.5-4.4,5.5-7.8,6.6c-2.6,0.9-5.3,1.6-8,2.2c-1.7,0.4-2.4,1.2-2.8,2.9c-0.8,3.2-1.8,6.3-2.8,9.4
		c-0.1,0.4-0.3,0.7-0.5,1c-1.5,2.7-3.3,5.2-6.8,5.3c-3.4,0.1-5.3-2.2-6.9-4.9c-0.2-0.3-0.4-0.6-0.7-1.1
		c-14.1,12.3-30.3,19.2-48.9,20.1c-18.6,1-35.5-4.1-50.8-15c-0.4,0.4-0.9,0.7-1.3,1.1c-3.3,3.3-6.6,6.7-10,10
		c-1.7,1.7-3.4,1.8-4.7,0.5c-1.2-1.3-1-2.9,0.6-4.6c9.6-9.6,19.1-19.1,28.7-28.7c7.7-7.7,15.4-15.4,23.1-23.1c0.5-0.5,1-1,1.3-1.4
		c-5.1-5.1-10.1-10-15.2-15.2c-0.3,0.2-0.8,0.7-1.3,1.2C59,123.4,33.7,148.6,8.5,173.9c-2.3,2.3-2.3,3,0,5.4
		c3.4,3.4,6.8,6.8,10.3,10.2c1.8,1.8,2.8,1.8,4.6,0c4.2-4.1,8.3-8.3,12.4-12.4c0.4-0.4,0.7-0.7,1.1-1.1c1.7-1.6,3.3-1.7,4.6-0.4
		c1.3,1.3,1.1,2.9-0.5,4.6c-1.7,1.7-3.4,3.4-5.1,5.1c-2.9,2.9-5.8,5.9-8.8,8.7c-3.7,3.6-8.4,3.6-12,0c-3.8-3.8-7.6-7.5-11.3-11.4
		c-1.1-1.2-1.8-2.7-2.7-4.1c0-1.3,0-2.6,0-3.9c1.6-2.1,3-4.3,4.8-6.2c11.1-11.3,22.4-22.5,33.6-33.6c1-1,1.1-1.7,0.4-2.9
		C24,103,27.7,67.7,49.1,42.4c0.3-0.3,0.5-0.7,0.9-1.2c-0.6-0.3-1.1-0.5-1.6-0.7c-1.5-0.8-3.1-1.4-4.4-2.3
		c-4.7-3.3-4.9-8.5-0.1-11.5c2.7-1.7,5.9-3,9-3.8c6.6-1.7,5.2-0.4,6.9-6.9c0.8-3.1,2-6.2,3.7-8.8c3.1-5,8.4-4.9,11.8-0.1
		c2.3,3.3,3.3,7.2,4.2,11.1c0.1,0.6,0.3,1.2,0.4,1.7c31.5-10.6,60.3-6.3,84.5,16.9c24.1,23.1,29.7,51.7,20.5,83.5
		c5.4,1.5,11.2,2.6,14.1,8.4C199,129.7,199,130.7,199,131.7z M88.6,23.4c1.7,0.8,3.2,1.3,4.5,2.1c2.8,1.5,5.2,3.4,5.2,6.9
		c0,3.6-2.4,5.7-5.3,6.9c-3.2,1.3-6.5,2.3-9.9,3.2C81,42.9,80,43.9,79.5,46c-0.6,3-1.5,6-2.7,8.8c-1.3,3.3-3.4,6.4-7.5,6.3
		c-4.1,0-6.1-3.1-7.4-6.4c-1.2-3.1-1.9-6.4-2.9-9.6c-0.3-0.9-1-1.7-1.7-2.3c-0.3-0.2-1.4,0.6-1.9,1.2
		c-18.6,21.2-23.8,45.5-15.9,72.5c1.3,4.3,3.3,8.4,5,12.6c0.3,0.1,0.6,0.1,0.9,0.2c0.4-0.6,0.8-1.3,1.4-1.9
		c16.5-16.5,33-33,49.5-49.5c0.5-0.5,1-1,1.6-1.4c1.2-0.8,2.4-0.6,3.4,0.3c1.1,1,1.3,2.2,0.7,3.5c-0.3,0.6-0.9,1.1-1.4,1.6
		c-3.5,3.5-7,7-10.3,10.3c5.1,5.1,10.2,10.2,15.3,15.3c2.2-2.3,4.6-4.7,6.9-7c5.9-5.9,11.9-11.8,17.8-17.8c3.9-3.9,3.9-9,0.1-12.9
		c-0.9-0.9-1.8-1.9-2.7-2.7c-3.6-3.3-8.7-3.3-12.2,0.1c-1.4,1.3-2.7,2.8-4.1,4.1c-1.4,1.3-3.1,1.4-4.3,0.2c-1.2-1.2-1.1-2.9,0.2-4.3
		c1.6-1.6,3.2-3.2,4.8-4.7c2.2-2,4.7-3.1,7.6-3.4c7.7-0.8,16.8,5.6,18.8,13.4c1.5,5.7-0.2,10.6-4.4,14.8
		c-21.8,21.7-43.5,43.5-65.2,65.2c-0.5,0.5-1,1.1-1.6,1.7c0.9,0.6,1.6,1.1,2.4,1.6c27.6,17.9,63.4,15.4,88.4-6
		c2.2-1.8,2.9-3.5,2.1-6.2c-0.5-1.7-1.3-2.5-3-3c-3.8-1.1-7.8-2-11.2-3.9c-6.1-3.3-6.1-9.4,0.1-12.8c3.2-1.7,6.8-2.7,10.3-3.6
		c3.2-0.9,3.3-0.8,4-4c0.8-4.1,1.8-8.1,4.3-11.5c3.3-4.6,8.3-4.6,11.5,0.1c1.3,1.9,2.1,4.1,3,6.2c0.5,1.1,0.7,2.4,1.1,3.6
		c0.2,0,0.4-0.1,0.6-0.1c6.4-25.5,1.8-48.7-15.5-69C146.6,23.9,115.4,14.9,88.6,23.4z M45.7,32.3c1.5,0.9,2.3,1.7,3.3,2
		c2.8,1,5.6,1.9,8.5,2.6c4.3,1,6.4,3.1,7.4,7.4c0.7,2.9,1.6,5.8,2.6,8.6c0.3,0.9,1.2,1.7,2,3c0.9-1.5,1.8-2.5,2.2-3.7
		c0.9-2.6,1.7-5.3,2.3-8c0.9-4.1,3.3-6.4,7.4-7.4c3.1-0.7,6.1-1.8,9.1-2.9c0.7-0.3,1.2-1.1,1.8-1.6c-0.6-0.6-1.1-1.4-1.7-1.6
		c-3-1.1-6-2.2-9.1-2.9c-4.2-1-6.6-3.3-7.5-7.5c-0.6-2.9-1.6-5.8-2.6-8.6c-0.3-0.9-1.2-1.7-2-2.9c-0.9,1.5-1.7,2.4-2.1,3.5
		c-0.9,2.7-1.7,5.4-2.3,8.1c-0.9,4.1-3.1,6.3-7.3,7.3c-2.7,0.6-5.5,1.4-8.1,2.3C48.3,30.5,47.3,31.3,45.7,32.3z M146.5,130.3
		c1.4,0.9,2.3,1.8,3.4,2.1c2.7,0.9,5.4,1.8,8.1,2.4c4,0.9,6.5,3.1,7.4,7.2c0.6,2.8,1.4,5.5,2.3,8.1c0.4,1.2,1.3,2.3,2.3,3.8
		c0.9-1.5,1.8-2.4,2.2-3.5c0.9-2.7,1.8-5.4,2.4-8.1c1-4.3,3.2-6.6,7.5-7.5c2.4-0.5,4.9-1.2,7.2-2c1.4-0.5,2.6-1.4,4.5-2.5
		c-1.5-1-2.4-1.8-3.5-2.2c-2.7-0.9-5.5-1.8-8.3-2.4c-4.2-0.9-6.5-3.4-7.4-7.6c-0.6-2.7-1.4-5.3-2.3-7.9c-0.4-1.1-1.2-2-2.1-3.4
		c-0.9,1.3-1.7,2.2-2.1,3.2c-1,2.9-1.9,5.9-2.6,8.9c-0.9,3.7-3.1,5.9-6.8,6.8c-3,0.7-5.9,1.6-8.9,2.6
		C148.7,128.6,147.9,129.4,146.5,130.3z"/>
</g>
</svg>
