<?xml version="1.0" encoding="utf-8"?>
<!-- Generator: Adobe Illustrator 23.0.1, SVG Export Plug-In . SVG Version: 6.00 Build 0)  -->
<svg version="1.1" id="Layer_1" xmlns="http://www.w3.org/2000/svg" xmlns:xlink="http://www.w3.org/1999/xlink" x="0px" y="0px"
	 viewBox="0 0 200 200" style="enable-background:new 0 0 200 200;" xml:space="preserve">
<style type="text/css">
	.st0{fill:#FFFFFF;}
</style>
<g>
	<path d="M90.4,136.7c-1.9-1.8-3.8-3.6-5.6-5.4c-1.8-1.8-1.9-4.1-0.3-5.6c1.6-1.5,3.7-1.5,5.5,0.3c4.2,4.1,8.3,8.2,12.4,12.3
		c2,2,1.9,3.9-0.1,5.9c-4,4-8,8.1-12.1,12.1c-1.9,1.9-4.2,2-5.8,0.4c-1.5-1.6-1.3-3.8,0.5-5.7c1.9-1.9,3.9-3.8,6.2-6.1
		c-4.6-0.3-8.6-0.4-12.5-0.7c-17.2-1.3-34.3-3.5-50.7-9.4c-5.7-2-11.2-4.5-15.8-8.5c-4.1-3.5-6.8-7.7-5.9-13.4
		c0.7-4.2,3.4-7.3,6.6-9.8c5.4-4.3,11.8-6.9,18.3-9c2-0.7,4,0.4,4.7,2.2c0.7,2-0.2,3.9-2.3,4.8c-3.6,1.5-7.3,2.8-10.7,4.6
		c-2.6,1.4-5.1,3.2-7.3,5.3c-2.8,2.7-2.8,5.7,0.1,8.2c2.7,2.4,5.9,4.5,9.2,6.1c9.4,4.5,19.5,7,29.7,8.4c11.3,1.5,22.7,2.4,34.1,3.6
		c0.5,0.1,1.1,0,1.6,0C90.2,137,90.3,136.9,90.4,136.7z"/>
	<path d="M116.9,144.6c-4.2,0.2-6.3-1.8-5.6-4.5c0.5-1.9,1.8-2.7,3.7-2.9c7.2-0.6,14.5-1.1,21.7-2c12.3-1.5,24.5-3.8,36-8.7
		c3.8-1.6,7.5-3.8,10.7-6.3c4.2-3.3,4-6.7,0-10.3c-4.5-4.1-10.1-6.2-15.7-8.3c-0.7-0.3-1.4-0.5-2.1-0.8c-1.7-1-2.3-2.9-1.6-4.6
		c0.7-1.7,2.5-2.8,4.3-2.2c6.9,2.2,13.7,4.9,19.3,9.7c4,3.4,6.9,7.5,6,13.2c-0.6,3.9-2.8,6.8-5.6,9.3c-6,5.2-13.2,8-20.6,10.3
		c-13.3,4.2-27,6.3-40.9,7.5C123.2,144.1,119.7,144.3,116.9,144.6z"/>
	<path d="M94.2,77.4c3.7,0,7,0,10.4,0c6.5,0,9.9,3.4,9.9,9.9c0,3,0,6,0,9c-0.1,5.2-3.7,8.8-9,8.9c-3.2,0-6.4,0-9.7,0
		c-5.4,0-9-3.5-9.1-9c-0.1-3.4,0-6.8,0-10.3c0-6.4,0-12.7,0-19.1c0-6.2,3.5-9.7,9.7-9.7c4.5,0,9,0,13.6,0c2.8,0,4.5,1.4,4.5,3.7
		c0.1,2.4-1.6,3.8-4.6,3.8c-4,0-7.9,0-11.9,0c-3.7,0-3.7,0-3.7,3.8C94.2,71.3,94.2,74.2,94.2,77.4z M94.2,85c0,3.9,0,7.5,0,11.1
		c0,1.3,0.7,1.7,1.8,1.7c3,0,6,0,9,0c1.3,0,1.9-0.5,1.9-1.8c0-3.1,0-6.2,0-9.2c0-1.2-0.6-1.7-1.8-1.7C101.6,85,98.1,85,94.2,85z"/>
	<path d="M122.1,81.1c0-4.2,0-8.5,0-12.7c0.1-6.4,4.7-11.1,11.1-11.2c2.5,0,5.1-0.1,7.6,0.3c5.1,0.8,8.8,5,8.9,10.1
		c0.2,9.1,0.2,18.2,0,27.3c-0.1,5.8-4.9,10.2-10.7,10.4c-2.1,0-4.1,0-6.2,0c-6-0.1-10.7-4.8-10.8-10.7
		C122.1,90,122.2,85.6,122.1,81.1C122.2,81.1,122.2,81.1,122.1,81.1z M142.4,81.2c0-4.2,0-8.5,0-12.7c0-2.3-1.2-3.6-3.5-3.7
		c-1.9-0.1-3.8-0.1-5.7,0c-2.2,0.1-3.5,1.5-3.5,3.8c0,8.5,0,17,0,25.5c0,2.3,1.4,3.7,3.7,3.8c1.5,0.1,3,0,4.5,0
		c3.3,0,4.5-1.2,4.5-4.4C142.4,89.2,142.4,85.2,142.4,81.2z"/>
	<path d="M71.4,85c-5.1,0-9.8,0-14.5,0c-0.7,0-1.4,0-2.1,0c-2.2-0.2-3.8-1.9-3.7-3.9c0.1-2,1.5-3.6,3.7-3.6c4.5-0.1,9-0.1,13.6-0.1
		c0.9,0,1.8,0,2.9,0c0-4,0.1-7.8-0.1-11.6c0-0.4-1.3-1.1-2-1.1c-4.5-0.1-9,0-13.6-0.1c-1,0-2.5-0.2-3-0.8c-0.8-1-1.4-2.5-1.3-3.8
		c0.1-1.6,1.5-2.8,3.1-2.8c5.7-0.1,11.5-0.3,17.2,0.2c4.3,0.3,7.2,4,7.3,8.4C79,76,79.1,86.3,79,96.5c0,5-3.8,8.6-8.8,8.6
		c-4.9,0-9.7,0-14.6,0c-2.7,0-4.4-1.5-4.4-3.8c0-2.3,1.7-3.7,4.5-3.7c4.4,0,8.9-0.1,13.3,0c1.7,0,2.5-0.5,2.5-2.3
		C71.4,92,71.4,88.6,71.4,85z"/>
	<path d="M161.2,62.5c-5.6,0-10.2-4.6-10.2-10.2c0.1-5.6,4.6-10.1,10.2-10.1c5.6,0,10.2,4.6,10.2,10.2
		C171.4,58,166.9,62.5,161.2,62.5z M161.4,55c1.5-0.2,2.5-1.1,2.5-2.7c0-1.5-1.3-2.8-2.8-2.6c-1.6,0.2-2.5,1.2-2.4,2.8
		C158.7,54.1,159.7,54.9,161.4,55z"/>
	<path class="st0" d="M94.2,85c3.9,0,7.4,0,11,0c1.2,0,1.8,0.5,1.8,1.7c0,3.1,0,6.2,0,9.2c0,1.3-0.6,1.8-1.9,1.8c-3,0-6,0-9,0
		c-1.1,0-1.8-0.4-1.8-1.7C94.2,92.4,94.2,88.8,94.2,85z"/>
	<path class="st0" d="M142.4,81.2c0,4,0,8.1,0,12.1c0,3.2-1.3,4.4-4.5,4.4c-1.5,0-3,0.1-4.5,0c-2.3-0.1-3.7-1.5-3.7-3.8
		c0-8.5,0-17,0-25.5c0-2.3,1.3-3.6,3.5-3.8c1.9-0.1,3.8-0.1,5.7,0c2.3,0.1,3.5,1.5,3.5,3.7C142.4,72.7,142.4,76.9,142.4,81.2z"/>
	<path class="st0" d="M161.4,55c-1.6-0.1-2.6-0.9-2.7-2.5c-0.1-1.6,0.8-2.6,2.4-2.8c1.5-0.2,2.8,1.1,2.8,2.6
		C163.8,53.9,162.9,54.8,161.4,55z"/>
</g>
</svg>
