<?xml version="1.0" encoding="utf-8"?>
<!-- Generator: Adobe Illustrator 23.0.1, SVG Export Plug-In . SVG Version: 6.00 Build 0)  -->
<svg version="1.1" id="Layer_1" xmlns="http://www.w3.org/2000/svg" xmlns:xlink="http://www.w3.org/1999/xlink" x="0px" y="0px"
	 viewBox="0 0 200 200" style="enable-background:new 0 0 200 200;" xml:space="preserve">
<g>
	<path d="M86.2,180.9c-1.4,0-2.2,0-3,0c-23.9,0-47.8,0-71.6,0c-7.1,0-10.5-3.4-10.5-10.4C1,132.2,1,94,1,55.7C1,47.5,5.6,43,13.8,43
		c7.3,0,14.6,0,21.9,0c0.7,0,1.4,0,2.1,0.1c1.5,0.3,2.3,1.4,2.2,2.9c0,1.6-0.8,2.7-2.4,2.9c-1,0.1-1.9,0.1-2.9,0.1
		c-7.1,0-14.2,0-21.2,0c-4.4,0-6.3,1.9-6.3,6.4c0,31.2,0,62.3,0,93.5c0,0.6,0.1,1.2,0.1,1.9c61.9,0,123.7,0,185.8,0
		c0-0.8,0-1.6,0-2.3c0-30.9,0-61.8,0-92.7c0-5-1.7-6.8-6.7-6.8c-7.2,0-14.4,0-21.7,0c-0.8,0-1.5,0-2.3-0.2c-1.5-0.3-2.5-1.4-2.2-2.8
		c0.2-1,1.2-2,2-2.8c0.5-0.4,1.5-0.3,2.2-0.3c7.4,0,14.9,0,22.3,0c7.6,0,12.4,4.7,12.4,12.3c0,38.5,0,77,0,115.6
		c0,6.5-3.6,10-10.1,10c-24,0-48,0-72.1,0c-0.8,0-1.7,0-2.9,0c0.6,1.3,1,2.3,1.5,3.3c1.2,2.5,2.4,5,3.8,7.4c0.3,0.6,1.3,1.2,2,1.2
		c1.7,0.2,3.5,0,5.2,0.1c2.2,0.1,3.5,1.2,3.5,3c0,1.8-1.2,3-3.5,3c-8,0-16,0-23.9,0c-9.4,0-18.9,0-28.3,0c-1,0-2.3-0.1-2.9-0.7
		c-0.7-0.7-1.3-2.2-1-3.1c0.3-0.9,1.6-2,2.6-2.2c1.8-0.4,3.7-0.2,5.6-0.1c1.2,0,1.9-0.3,2.4-1.4C82.5,188.1,84.3,184.7,86.2,180.9z
		 M7.1,157.1c0,4.6,0,8.9,0,13.3c0,3.8,0.7,4.6,4.6,4.6c58.8,0,117.7,0,176.5,0c0.7,0,1.6,0.2,2-0.1c1-0.7,2.5-1.6,2.5-2.5
		c0.2-5,0.1-10.1,0.1-15.2C130.9,157.1,69.1,157.1,7.1,157.1z M113.1,192.8c-1.9-3.9-3.7-7.5-5.6-11c-0.2-0.5-1.1-0.8-1.6-0.8
		c-3.9-0.1-7.8-0.1-11.6,0c-0.5,0-1.4,0.2-1.6,0.6c-1.9,3.7-3.7,7.4-5.7,11.3C95.7,192.8,104.2,192.8,113.1,192.8z"/>
	<path d="M70.2,27.9c20.8,0,41.1,0,61.8,0c-0.6-0.7-0.9-1.2-1.4-1.7c-5.8-6.5-11.7-13-17.4-19.7c-0.7-0.9-1.2-2.5-1-3.5
		c0.6-2.3,3.4-2.6,5.1-0.7c3.9,4.3,7.8,8.7,11.6,13.1c3.4,3.8,6.8,7.7,10.3,11.5c0.6,0.6,1.6,1,2.5,1.1c4.9,0.1,9.7,0,14.6,0.1
		c2.8,0,4.4,2.2,3.1,4.3c-0.6,0.9-2,1.5-3,1.6c-4.2,0.4-4.3,0.3-5.4,4.4c-3.6,12.9-7.1,25.8-10.7,38.7c-1.6,5.6-4.5,7.9-10.3,7.9
		c-19.5,0-39,0-58.5,0c-5.7,0-8.7-2.3-10.2-7.8C57.6,63.4,53.8,49.7,50.1,36c-0.4-1.6-1-2.2-2.7-2c-1.1,0.1-2.2,0-3.3,0
		c-2.7,0-4.1-1.1-4-3.1c0-1.9,1.4-3,4-3c5.5,0,11-0.1,16.5,0c1.6,0,2.5-0.5,3.4-1.7C69.8,18.6,75.7,11,81.7,3.4
		C82,3,82.2,2.6,82.6,2.3c1.2-1.4,3-1.6,4.3-0.6c1.3,1,1.6,2.8,0.4,4.3c-2.8,3.7-5.7,7.4-8.5,11C76,20.5,73.2,24,70.2,27.9z
		 M55.8,34.1c0.2,0.9,0.4,1.7,0.6,2.5c3.5,12.9,7.1,25.8,10.7,38.7c0.9,3.2,1.5,3.7,4.8,3.7c19.4,0,38.7,0,58.1,0
		c3.2,0,3.8-0.5,4.7-3.5c3.3-11.9,6.6-23.8,9.8-35.7c0.5-1.8,1-3.7,1.5-5.7C115.8,34.1,85.9,34.1,55.8,34.1z"/>
	<path d="M64,100c0,1,0,1.8,0,2.6c0,9.6,0,19.3,0,28.9c0,7-3.5,10.4-10.5,10.4c-7.1,0-14.2,0-21.2,0c-6.6,0-10.2-3.5-10.2-10.1
		c0-9.8,0-19.6,0-29.3c0-0.8,0-1.5,0-2.6c-1.1,0-2.1,0.1-3.1,0c-1.8-0.1-2.8-1.2-2.8-3c0-1.7,0.9-2.7,2.6-2.9
		c0.7-0.1,1.4-0.1,2.1-0.1c14.8,0,29.6,0,44.3,0c0.6,0,1.2,0,1.9,0c1.9,0.1,2.8,1.2,2.9,2.9c0.1,1.7-1.2,2.9-3,3
		C66,100,65.1,100,64,100z M28,100c0,0.8,0,1.3,0,1.8c0,10,0,20,0,30c0,3.1,1,4.1,4.1,4.1c7.3,0,14.6,0,21.9,0c3.2,0,4-0.9,4-4.1
		c0-9.9,0-19.8,0-29.8c0-0.7,0-1.3,0-2c-4.1,0-7.9,0-12,0c0,1.9,0,3.7,0,5.4c-0.1,2.2-1.2,3.5-3,3.5c-1.8,0-2.9-1.4-2.9-3.6
		c0-1.8,0-3.5,0-5.3C35.9,100,32.1,100,28,100z"/>
	<path d="M90.9,102.8c0.1-1.3,0.1-2.4,0.2-3.6c0.4-3,2.5-5,5.6-5.2c2-0.1,4-0.1,6,0c3.8,0.1,6,2.3,6.3,6.1c0.1,0.9,0,1.8,0,2.7
		c1,0.1,1.7,0.1,2.5,0.3c1.5,0.3,2.5,1.1,2.7,2.7c1.1,8,2.3,16.1,3.2,24.1c0.7,6.2-4.7,11.8-11.4,12.1c-4,0.1-8,0.2-12.1,0
		c-7.8-0.3-12.4-7.4-11.3-13.5c1.3-6.9,1.9-14,2.9-21C86.2,103.4,86.6,103.1,90.9,102.8z M100,109c-2.4,0-4.7-0.1-7.1,0.1
		c-0.6,0-1.5,0.7-1.6,1.2c-1,6.4-1.8,12.8-2.6,19.2c-0.5,3.8,1.8,6.3,5.5,6.4c3.8,0.1,7.6,0.1,11.4,0c3.8-0.1,6-2.6,5.6-6.4
		c-0.8-6.4-1.7-12.8-2.5-19.2c-0.1-1.1-0.7-1.3-1.7-1.3C104.7,109,102.4,109,100,109z M102.9,100.1c-2,0-3.9,0-5.7,0
		c0,1,0,1.8,0,2.6c2,0,3.9,0,5.7,0C102.9,101.8,102.9,101,102.9,100.1z"/>
	<path d="M172,128.4c3,3,5.8,5.8,8.6,8.6c1.8,1.8,2,3.6,0.7,4.9c-1.4,1.4-3.1,1.2-5-0.7c-2.8-2.8-5.5-5.6-8.5-8.6
		c-1.7,2.8-3.3,5.4-4.8,8c-0.7,1.3-1.6,2.3-3.2,2.2c-1.7-0.1-2.4-1.3-3-2.8c-3.8-9.9-7.6-19.8-11.4-29.7c-0.6-1.5-0.8-2.8,0.5-4
		c1.2-1.1,2.5-1,3.8-0.4c9.9,3.8,19.8,7.6,29.7,11.4c1.4,0.5,2.7,1.2,2.8,2.9c0.1,1.7-1,2.6-2.3,3.4
		C177.3,125.2,174.8,126.8,172,128.4z M172.2,121.5c-0.1-0.2-0.1-0.4-0.2-0.6c-6.1-2.4-12.3-4.7-18.9-7.2c2.6,6.7,4.9,12.8,7.3,19
		C163,127.4,166.7,123.6,172.2,121.5z"/>
	<path d="M157.2,102c-0.7-0.6-1.9-1.1-2.2-2c-0.4-0.8-0.3-2.3,0.2-3c1.6-2,3.5-3.7,5.4-5.4c1.2-1.1,2.6-0.8,3.7,0.3
		c1,1,1.6,2.4,0.6,3.5c-1.8,2.1-3.8,4-5.8,5.9C158.8,101.6,158.1,101.7,157.2,102z"/>
	<path d="M138.5,114.9c0.7,0.6,1.8,1.1,2.2,1.9c0.4,0.8,0.3,2.3-0.2,3c-1.6,2-3.5,3.7-5.4,5.4c-1.2,1.1-2.6,0.8-3.7-0.2
		c-1.1-1-1.6-2.4-0.6-3.5c1.8-2.1,3.9-4.1,6-6C137.1,115.2,137.7,115.2,138.5,114.9z"/>
	<path d="M138.8,101.8c-2.4,0-8.6-6.1-8.3-7.8c0.2-1,0.9-2.2,1.7-2.6c0.8-0.4,2.3-0.3,3,0.3c2,1.6,3.8,3.4,5.4,5.4
		c0.5,0.7,0.6,2.2,0.2,3C140.3,100.9,139.2,101.4,138.8,101.8z"/>
	<path d="M115,165.9c0,1.6-1.5,3.1-3.1,3c-1.6-0.1-2.9-1.4-2.9-3c0-1.7,1.4-3.1,3.1-3C113.7,163,115,164.4,115,165.9z"/>
	<path d="M90.9,165.8c0.1,1.7-1.2,3.1-2.9,3.1c-1.6,0-2.9-1.2-3-2.8c-0.1-1.7,1.3-3.1,2.9-3.1C89.5,162.9,90.9,164.2,90.9,165.8z"/>
	<path d="M100.1,168.9c-1.6,0-3-1.2-3.1-2.8c-0.1-1.7,1.2-3.1,2.8-3.2c1.6-0.1,3,1.3,3.1,3C103,167.5,101.7,168.9,100.1,168.9z"/>
	<path d="M76.8,42.9c0.4,0.5,1.6,1.3,2,2.3c2.2,6.9,4.2,13.9,6.1,20.9c0.5,1.8-0.4,3.3-2.2,3.7c-1.8,0.4-3-0.3-3.6-2
		c-2.1-7-4.2-14.1-6.1-21.1C72.4,44.6,74,42.8,76.8,42.9z"/>
	<path d="M118.7,70c-2.6,0-4.1-1.8-3.6-3.7c2-7.1,4.1-14.2,6.2-21.3c0.5-1.7,1.9-2.4,3.6-1.9c1.7,0.5,2.5,1.9,2.1,3.6
		c-2,7.1-4,14.2-6.2,21.3C120.5,68.8,119.2,69.5,118.7,70z"/>
	<path d="M97,56.3c0-3.3,0-6.5,0-9.8c0-2.2,1.2-3.5,3-3.5c1.8,0,2.9,1.4,2.9,3.5c0,6.6,0,13.3,0,19.9c0,2.2-1.2,3.5-3,3.5
		c-1.8,0-2.9-1.3-2.9-3.5C97,63,97,59.6,97,56.3z"/>
</g>
</svg>
