<?xml version="1.0" encoding="utf-8"?>
<!-- Generator: Adobe Illustrator 23.0.1, SVG Export Plug-In . SVG Version: 6.00 Build 0)  -->
<svg version="1.1" id="Layer_1" xmlns="http://www.w3.org/2000/svg" xmlns:xlink="http://www.w3.org/1999/xlink" x="0px" y="0px"
	 viewBox="0 0 200 200" style="enable-background:new 0 0 200 200;" xml:space="preserve">
<g>
	<path d="M101.6,199c-1,0-2.1,0-3.1,0c-4.6-1.6-7.1-4.6-6.7-9.7c0-0.4-0.6-1.1-1.1-1.4c-20.4-12.1-40.9-24.2-61.3-36.3
		c-0.8-0.5-1.4-0.5-2.2,0.1c-4.1,3-9.5,2.1-12.1-2.1c-2.6-4.2-1.2-9.6,3.3-11.9c1.1-0.6,1.4-1.2,1.4-2.3c0-23.7,0-47.4,0-71.1
		c0-1.3-0.4-1.9-1.5-2.5c-3.3-1.7-5-5.3-4.4-8.7c0.7-3.7,3.4-6.4,7.1-6.9c2.8-0.5,5.2,0.6,7.3,2.5c0.7-0.4,1.3-0.7,1.9-1.1
		C49.6,36.1,69,24.7,88.5,13.4c2-1.2,3.5-2,3.4-4.9c-0.1-3.9,2.9-6,6.2-7.5c1.3,0,2.6,0,3.9,0c0.2,0.1,0.4,0.3,0.6,0.4
		c4.1,1.7,5.9,4.6,5.8,9c0,0.6,0.6,1.4,1.1,1.7c20.5,11.9,41.1,23.8,61.7,35.7c0.9,0.5,1.5,0.5,2.4,0c4.2-2.6,9.3-1.2,11.7,2.9
		c2.3,4.1,0.9,9.2-3.4,11.4c-1.3,0.6-1.6,1.4-1.6,2.7c0,23.5,0,47,0,70.5c0,1.2,0.3,1.9,1.5,2.5c4.3,2.2,5.8,7.4,3.4,11.6
		c-2.4,4.1-7.6,5.5-11.7,2.8c-1-0.7-1.7-0.5-2.5,0c-6,3.5-12,7-18,10.5c-14.4,8.4-28.8,16.8-43.2,25.2c-0.6,0.3-1.4,1-1.4,1.5
		C108.6,194.5,106.1,197.4,101.6,199z M60.1,101.3c0-6.8,0-13.7,0-20.5c0-1.1-0.2-1.7-1.2-2.3C49,72.7,39.1,66.9,29.3,61.1
		c-1.6-0.9-4.7,0.9-4.7,2.7c0,24,0,47.9,0,71.9c0,0.6,0.6,1.5,1.1,1.8c3.2,1.8,4.9,4.5,4.7,8.2c-0.1,1.1,0.2,1.7,1.2,2.3
		c20.5,11.8,40.9,23.7,61.3,35.5c2,1.2,4.7-0.4,4.7-2.8c0-11.3,0-22.6,0-33.8c0-1.4-0.5-2.2-1.7-2.9c-11.4-6.6-22.7-13.2-34.1-19.7
		c-1.4-0.8-1.9-1.7-1.9-3.3C60.2,114.4,60.1,107.9,60.1,101.3z M175.5,100.1c0-11.8,0-23.6,0-35.4c0-2.5-2.5-4-4.6-2.7
		c-9.7,5.5-19.4,11.1-29.2,16.6c-1.3,0.7-1.8,1.5-1.8,3c0.1,13.3,0,26.5,0.1,39.8c0,1.4-0.4,2.2-1.6,2.9
		c-11.5,6.6-22.9,13.3-34.4,19.9c-1.1,0.7-1.6,1.4-1.6,2.7c0.1,11.3,0,22.5,0,33.8c0,2.4,2.9,4.1,5,2.9
		c20.3-11.9,40.6-23.7,60.8-35.5c1.1-0.6,1.5-1.3,1.5-2.6c-0.1-3.4,1.2-6.2,4.4-7.8c1.2-0.6,1.4-1.3,1.4-2.5
		C175.5,123.5,175.5,111.8,175.5,100.1z M169.6,54.9c0.6-1.7-0.3-2.5-1.7-3.3c-20.2-11.7-40.4-23.5-60.5-35.3c-2-1.1-5,0.6-5,2.8
		c0,11.3,0,22.7,0,34c0,1.3,0.4,2.1,1.6,2.7c10.7,6.2,21.4,12.4,32,18.6c1.2,0.7,2.1,0.7,3.3,0c9.5-5.6,19.1-11.1,28.7-16.6
		C169.2,57.2,170.1,56.5,169.6,54.9z M97.7,36.4c0-5.7,0-11.3,0-17c0-2.5-2.5-4-4.6-2.8C72.7,28.3,52.3,40,32,51.7
		c-2.3,1.3-2.3,4.1-0.1,5.3c9.9,5.8,19.7,11.6,29.6,17.5c1,0.6,1.7,0.5,2.6,0C74.8,68.2,85.5,62,96.3,55.8c1.1-0.6,1.4-1.4,1.4-2.6
		C97.6,47.6,97.7,42,97.7,36.4z M136.4,76.1c-0.7,0.4-1.2,0.6-1.6,0.9c-11.1,6.4-22.2,12.8-33.2,19.3c-1.1,0.7-1.9,0.7-3.1,0
		c-7.3-4.4-14.6-8.7-21.9-13c-4.2-2.5-8.4-4.9-12.7-7.4c-0.8,1.4-1.6,2.7-2.4,4.1c0.7,0.4,1.3,0.8,1.9,1.2
		C74.3,87.6,85.2,94,96,100.4c1.2,0.7,1.7,1.5,1.6,2.9c-0.1,12.9,0,25.9,0,38.8c0,0.7,0,1.5,0,2.2c1.7,0,3.1,0,4.7,0
		c0-0.9,0-1.7,0-2.4c0-12.8,0-25.6,0-38.5c0-1.6,0.5-2.4,1.8-3.1c7.3-4.2,14.6-8.4,21.9-12.7c4.2-2.5,8.4-4.9,12.7-7.4
		C138,78.8,137.3,77.6,136.4,76.1z"/>
</g>
</svg>
