<?xml version="1.0" encoding="utf-8"?>
<!-- Generator: Adobe Illustrator 23.0.1, SVG Export Plug-In . SVG Version: 6.00 Build 0)  -->
<svg version="1.1" id="Layer_1" xmlns="http://www.w3.org/2000/svg" xmlns:xlink="http://www.w3.org/1999/xlink" x="0px" y="0px"
	 viewBox="0 0 200 200" style="enable-background:new 0 0 200 200;" xml:space="preserve">
<g>
	<path d="M1,76.8c0.2-1.2,0.4-2.4,0.7-3.6c2.1-7.9,8.2-12.7,16.5-12.7c10-0.1,20,0,30,0c0.7,0,1.4,0,2.3,0c0.1-1.6,0.2-3.1,0.4-4.6
		c0.7-5.1,4.9-8.6,10-8.5c5,0.1,9,3.9,9.4,9c0.1,1.3,0.1,2.7,0.2,4.1c3.9,0.3,7.4,1.3,10.3,3.8c4,3.3,6,7.6,6,12.6
		c0.1,8.8,0.1,17.7,0,26.5c-0.2,9.1-6.7,15.9-15.8,16.3c-7.3,0.3-14.6,0.1-21.8,0.1c-10.8,0-21.6,0.2-32.5-0.1
		c-8.3-0.2-14.5-6.5-15.4-14.7c0-0.4-0.2-0.7-0.3-1.1C1,94.8,1,85.8,1,76.8z M44,113.2c8.5,0,17,0,25.5,0c6.8,0,10.8-4,10.8-10.8
		c0-8.1,0-16.2,0-24.3c0-6.9-4-10.9-10.9-10.9c-16.9,0-33.8,0-50.6,0c-7,0-11,4-11,11c0,8,0,16,0,24c0,7.2,3.9,11.1,11.1,11.1
		C27.2,113.2,35.6,113.2,44,113.2z M63.8,60.4c-0.1-2.3,0.7-4.7-1.6-5.9c-0.9-0.5-2.6-0.4-3.5,0.2c-2,1.3-1.3,3.6-1.4,5.7
		C59.5,60.4,61.5,60.4,63.8,60.4z"/>
	<path d="M61.7,199c-3-0.9-5.9-1.7-8.3-3.8c-3.7-3.1-5.8-7.1-6-11.9c-0.2-4.4-0.1-8.8-0.1-13.1c0-12.9,0-25.8,0-38.6
		c0-0.7,0-1.4,0.1-2.1c0.2-1.7,1.2-2.7,2.9-2.9c1.7-0.2,3,0.7,3.4,2.4c0.2,0.8,0.2,1.7,0.2,2.5c0,16.6,0.2,33.1-0.1,49.7
		c-0.1,6.9,4.7,11.4,11.4,11.3c23.4-0.2,46.8-0.1,70.1-0.1c5.3,0,9.1-2.6,10.4-7.2c0.4-1.3,0.4-2.8,0.4-4.2c0-8.9,0-17.8,0-26.7
		c0-3.1,1.1-4.7,3.3-4.7c2.2,0,3.3,1.6,3.3,4.8c0,9-0.1,17.9,0,26.9c0.1,9.6-6.1,16.4-14.3,17.6c-0.1,0-0.2,0.1-0.3,0.2
		C112.8,199,87.2,199,61.7,199z"/>
	<path d="M103.4,40.7c-2.8,0-5.4,0-8,0c-0.4,0-0.9,0.1-1.5,0.1c0.3,2.3,0.6,4.5,0.8,6.8c0.1,1,0.2,1.9,0.2,2.9c0,1.8-1.1,3-2.7,3.2
		c-1.8,0.2-3.1-0.5-3.5-2.3c-0.5-2.5-0.8-5.1-1.1-7.6c-0.2-1.6-0.4-3.2-0.6-4.8c-0.5-3.3,0.8-4.8,4.2-4.8c3.7,0,7.3,0,11-0.1
		c0.6,0,1.5-0.5,1.7-1c1-3.3,2.8-6,5.5-8.4c-2-2.6-3.5-5.5-2.5-8.7c0.5-1.9,1.5-3.9,2.8-5.3c2.8-3.1,7.5-3.7,11.2-1.8
		c4.2,2.1,5.9,5.9,5.1,12c0.4,0,0.9,0.1,1.3,0.1c2.4,0,4.7,0,7.4,0c-1.9-4-2.3-8-0.6-11.9c1.1-2.7,3-4.8,5.5-6.3
		c4.8-2.8,11-2.2,15.3,1.5c4.8,4.2,5.6,9.9,2.4,17.3c7.3,2.6,11.4,7.8,12,15.8c4.4-0.1,8.7,0.9,12.8-2.1c3.5-2.6,7.4-4.6,11.2-6.8
		c3.2-1.9,5.6-0.4,5.6,3.3c0,12.6,0,25.3,0,37.9c0,3.7-2.5,5.1-5.6,3.3c-4.3-2.6-8.7-5.1-12.9-7.8c-1.5-0.9-3-1.4-4.7-1.3
		c-2.1,0.1-4.2,0-6.4,0c-0.2,3.9-1.3,7.3-3.6,10.2c-3.3,4.1-7.7,6.2-12.9,6.3c-11,0.1-21.9,0.1-32.9,0c-7.6-0.1-13.5-4.6-15.8-11.9
		c-0.1-0.4-0.3-0.7-0.4-1.2c-3.2,0-6.4,0-9.6,0c-1.6,0-2.9-0.6-3.6-2.1c-0.9-2.1,0.6-4.3,3.1-4.4c2.5-0.1,5,0,7.5,0
		c0.7,0,1.4,0,2.2,0c0.1-0.5,0.1-0.8,0.1-1.1C103.4,53.3,103.4,47.2,103.4,40.7z M136.3,27.6c-5.2,0-10.4,0-15.7,0
		c-6.7,0-10.7,4-10.7,10.7c0,8.2,0,16.5,0,24.7c0,6.6,4.1,10.6,10.8,10.7c10.4,0,20.7,0,31.1,0c6.8,0,10.8-4,10.8-10.9
		c0-8.1,0-16.2,0-24.4c0-7-3.9-10.9-10.9-10.9C146.7,27.5,141.5,27.6,136.3,27.6z M192.3,36.7c-3.2,1.9-6.1,3.6-9,5.4
		c-0.4,0.3-0.8,1-0.8,1.6c-0.1,4.6-0.1,9.1,0,13.7c0,0.5,0.2,1.2,0.6,1.5c3,1.9,6,3.7,9.2,5.6C192.3,55.2,192.3,46.1,192.3,36.7z
		 M139.7,14.4c0,3.6,2.9,6.5,6.5,6.5c3.6,0,6.7-3,6.6-6.6c0-3.6-3-6.5-6.5-6.5C142.6,7.8,139.7,10.7,139.7,14.4z M169.4,57.1
		c2.2,0,4.3,0,6.3,0c0-4.4,0-8.7,0-12.9c-2.2,0-4.2,0-6.3,0C169.4,48.5,169.4,52.7,169.4,57.1z M116.6,20.9c1.8,0,3.2-1.4,3.2-3.1
		c0-1.9-1.4-3.3-3.2-3.3c-1.8,0-3.2,1.4-3.2,3.1C113.3,19.4,114.8,20.9,116.6,20.9z"/>
	<path d="M110,129.7c6.7,0,13.1,0,19.7,0c0-6.5,0-13,0-19.7c-3.4,0-6.7,0-10.1,0c-3,0-5.9,0-8.9,0c-2.5,0-4-1.3-4-3.3
		c0-2,1.5-3.3,4-3.3c6.6,0,13.3,0,19.9,0c1.1,0,2.3-0.2,3.4-0.6c9.9-3.9,19.8-7.9,29.8-11.9c3.7-1.5,5.6-0.2,5.6,3.7
		c0,16.8,0,33.6,0,50.5c0,4-1.9,5.3-5.5,3.8c-9.9-4-19.8-7.9-29.8-11.9c-1-0.4-2.2-0.6-3.4-0.6c-6.6-0.1-13.3,0-19.9,0
		c-4.7,0-7.3-2.6-7.3-7.3c0-1.9,0-3.7,0-5.6c0.1-2.1,1.3-3.4,3.1-3.5c1.9-0.1,3.3,1.2,3.4,3.4C110.1,125.4,110,127.4,110,129.7z
		 M162.6,98.6c-0.3,0-0.4,0-0.5,0c-8.2,3.3-16.5,6.5-24.7,9.9c-0.5,0.2-1,1.2-1,1.9c-0.1,6.2,0,12.5-0.1,18.7c0,1.2,0.3,1.8,1.5,2.2
		c7.8,3,15.5,6.2,23.3,9.3c0.5,0.2,0.9,0.3,1.5,0.5C162.6,126.9,162.6,112.8,162.6,98.6z"/>
	<path d="M108.3,152.9c-7.4,0-14.8,0-22.2,0c-0.4,0-0.8,0-1.2,0c-3,0-4.5-1.2-4.6-3.3c0-2.1,1.5-3.3,4.5-3.3c12.6,0,25.1,0,37.7,0
		c3,0,6.1,0,9.1,0c3.2,0,4.7,1.1,4.8,3.2c0,2.2-1.6,3.4-4.9,3.4C123.7,152.9,116,152.9,108.3,152.9z"/>
	<path d="M116.5,93.4c-6.1,0-12.2,0-18.4,0c-0.7,0-1.4,0-2.1-0.1c-1.6-0.4-2.4-1.5-2.5-3c0-1.5,0.7-2.6,2.1-3.1
		c0.7-0.2,1.4-0.3,2.1-0.3c12.6,0,25.1,0,37.7,0c0.4,0,0.9,0,1.3,0.1c1.8,0.4,2.9,1.7,2.8,3.4c-0.1,1.7-1.3,2.9-3.1,3.1
		c-0.6,0.1-1.2,0-1.7,0C128.6,93.4,122.6,93.4,116.5,93.4z"/>
	<path d="M80.4,129.8c4.1,0,8.2,0,12.4,0c2.5,0,4,1.3,4,3.3c0,2-1.5,3.3-3.9,3.3c-8.4,0-16.7,0-25.1,0c-2.4,0-3.9-1.3-3.9-3.4
		c0-1.9,1.5-3.2,3.8-3.2C71.9,129.7,76.2,129.8,80.4,129.8z"/>
	<path d="M80.3,169.3c-4.1,0-8.2,0-12.4,0c-2.5,0-4-1.1-4-3.1c-0.1-2.1,1.4-3.4,4-3.4c8.3,0,16.6,0,24.9,0c2.5,0,4,1.3,4,3.3
		c0,2-1.5,3.3-3.9,3.3C88.6,169.3,84.5,169.3,80.3,169.3z"/>
	<path d="M121.5,169.3c-3.6,0-7.2,0-10.8,0c-2.5,0-4-1.3-4-3.3c0-2,1.5-3.3,4-3.3c7.3,0,14.5,0,21.8,0c2.4,0,3.9,1.4,3.9,3.4
		c-0.1,1.9-1.5,3.1-3.9,3.2C128.8,169.3,125.1,169.3,121.5,169.3z"/>
	<path d="M76.9,182.5c-3.1,0-6.2,0-9.3,0c-2.4,0-3.8-1.3-3.8-3.2c0-1.9,1.4-3.3,3.7-3.4c6.3-0.1,12.6-0.1,18.9,0
		c2.3,0,3.7,1.4,3.7,3.3c0,1.9-1.4,3.2-3.8,3.2C83.2,182.5,80.1,182.5,76.9,182.5z"/>
	<path d="M113.1,182.5c-3,0-6,0-9.1,0c-2.5,0-4-1.3-4-3.2c0-2,1.5-3.3,3.9-3.3c6.2,0,12.3-0.1,18.5,0c2.5,0,3.9,1.3,3.8,3.4
		c0,2-1.4,3.1-3.8,3.2C119.4,182.5,116.3,182.5,113.1,182.5z"/>
	<path d="M189.1,119.8c-2.1,0-4.1,0-6.2,0c-2.2-0.1-3.6-1.3-3.6-3.2c0-1.9,1.3-3.3,3.5-3.4c4.2-0.1,8.4-0.1,12.6,0
		c2.3,0,3.7,1.5,3.6,3.4c-0.1,1.9-1.5,3-3.7,3.1c-0.1,0-0.3,0-0.4,0C192.9,119.8,191,119.8,189.1,119.8
		C189.1,119.8,189.1,119.8,189.1,119.8z"/>
	<path d="M192.8,93.5c-0.8,1.1-1.2,2.2-2,2.8c-3.1,2.2-6.4,4.4-9.6,6.4c-1.7,1.1-3.6,0.7-4.6-0.8c-1.1-1.6-0.7-3.5,1-4.7
		c3.1-2.2,6.2-4.4,9.5-6.3c0.9-0.6,2.5-0.6,3.6-0.2C191.5,91.1,192,92.4,192.8,93.5z"/>
	<path d="M188.7,146.2c-0.5-0.2-1.4-0.5-2.1-0.9c-2.9-1.9-5.8-3.8-8.7-5.8c-2-1.4-2.6-3.3-1.5-4.9c1.1-1.7,3-1.9,5.1-0.6
		c3.1,2,6.1,4,9.1,6.1c1.3,0.9,2,2.2,1.4,3.8C191.7,145.4,190.6,146.1,188.7,146.2z"/>
	<path d="M43.7,106.6c-9-0.2-16.1-7.4-16.1-16.4c-0.1-8.8,6.9-16.1,15.8-16.5c2.1-0.1,3.7,1.1,3.9,2.9c0.2,1.9-1.2,3.3-3.4,3.6
		C37.6,81,34,85,34.2,90.7c0.2,4.8,4,8.9,8.7,9.3c5.1,0.5,9.6-2.7,10.7-7.5c0.2-0.8,0.2-1.7,0.4-2.5c0.3-1.9,1.8-3.2,3.6-3
		c1.8,0.2,3,1.7,3,3.7C60.2,99.6,52.7,106.8,43.7,106.6z"/>
	<path d="M17.7,106.6c-1.9,0-3.3-1.4-3.3-3.2c0-1.7,1.4-3.2,3.1-3.3c1.8-0.1,3.3,1.5,3.3,3.3C20.9,105.1,19.5,106.5,17.7,106.6z"/>
	<path d="M137,34.2c3.3,0,6.6-0.1,9.8,0c5,0.2,8.9,4.2,9.2,9.2c0.1,2.4,0.1,4.8,0,7.1c-0.1,5.5-4,9.7-9.6,9.8
		c-6.6,0.2-13.1,0.1-19.7,0c-2.2,0-3.6-1.4-3.6-3.3c0-1.9,1.4-3.3,3.7-3.3c6,0,12,0,18,0c3.5,0,4.6-1.1,4.6-4.6c0-1.4,0-2.8,0-4.2
		c0-3.2-1.1-4.3-4.3-4.3c-5.7,0-11.5,0-17.2,0c-0.7,0-1.4,0-2.1-0.1c-1.8-0.4-2.9-1.8-2.7-3.4c0.1-1.7,1.3-2.9,3.2-3
		C130,34.1,133.5,34.2,137,34.2C137,34.2,137,34.2,137,34.2z"/>
</g>
</svg>
