<?xml version="1.0" encoding="utf-8"?>
<!-- Generator: Adobe Illustrator 23.0.1, SVG Export Plug-In . SVG Version: 6.00 Build 0)  -->
<svg version="1.1" id="Layer_1" xmlns="http://www.w3.org/2000/svg" xmlns:xlink="http://www.w3.org/1999/xlink" x="0px" y="0px"
	 viewBox="0 0 200 200" style="enable-background:new 0 0 200 200;" xml:space="preserve">
<g>
	<path d="M10.9,127.8c5.7-5.7,10.8-10.9,16-16.1c11.2-11.2,26-11.2,37.2-0.1c2.2,2.2,4.4,4.4,6.6,6.6c3.4,3.3,5.8,3.4,9.1,0
		C88.8,109.1,97.9,100,107,91c9-8.9,22.6-9.9,32.4-2.6c1.9,1.4,2.8,3.1,2.3,5.4c-0.4,2-1.7,3.4-3.7,3.6c-1.3,0.1-3-0.2-4.1-0.9
		c-7.6-4.7-14.3-4-20.7,2.3c-8.8,8.8-17.6,17.6-26.4,26.4c-7.3,7.2-15.8,7.2-23,0c-2.5-2.5-5-5.1-7.6-7.5c-6.2-6-15.1-6-21.2,0
		c-7.7,7.6-15.4,15.3-22.9,23c-0.7,0.7-1,1.9-1,2.8c-0.1,6.7-0.1,13.3,0,20c0,9.5,6.3,15.8,15.9,15.8c16.6,0,33.3,0,49.9,0
		c6.2,0,12.4,0,18.6,0c3.7,0,5.8,1.8,5.8,4.8c0,3.1-2.2,5-5.9,5c-22.8,0-45.6,0-68.5,0c-14.9,0-25.6-10.6-25.6-25.6
		c-0.1-25,0-50,0-75c0-20.7,0-41.3,0-62c0-13,8-22.9,20.5-25.2c1.8-0.3,3.7-0.4,5.5-0.4c45.3,0,90.7,0,136,0
		c15.6,0,26.1,10.5,26.1,26c0,10.6,0,21.2,0,31.8c0,3.2-1.7,5.3-4.4,5.5c-3,0.3-5.3-1.7-5.4-4.8c-0.1-4,0-8,0-12.1
		c0-6.9,0-13.8,0-20.7c0-9.8-6.2-16-15.9-16c-45.6,0-91.1,0-136.7,0c-9.4,0-15.7,6.3-15.7,15.7c0,32.9,0,65.7,0,98.6
		C10.9,125.8,10.9,126.4,10.9,127.8z"/>
	<path d="M110.9,180.7c0-1,0.1-2,0-3c-0.7-6.9,1.2-12.9,4.7-18.9c15.9-27.1,31.4-54.3,47.1-81.4c3.8-6.5,9.1-7.9,15.6-4.1
		c5,2.9,10,5.8,15,8.7c5.7,3.3,7.3,8.9,4,14.6c-16.4,28.5-32.9,57-49.4,85.5c-1.9,3.4-4.6,6-8,7.9c-4.5,2.5-9,5.1-13.6,7.5
		c-7.6,4.1-15.2-0.4-15.3-9.1c0-2.6,0-5.1,0-7.7C111,180.7,110.9,180.7,110.9,180.7z M172.1,81.1c-0.4,0.5-0.7,0.9-0.9,1.3
		c-16.3,28.2-32.6,56.4-48.9,84.7c-0.7,1.2-1.4,2.6-1.4,3.9c-0.2,5.9-0.1,11.9-0.1,18.1c0.9-0.4,1.6-0.7,2.2-1
		c3.7-2.1,7.4-4.2,11.1-6.2c2.6-1.4,4.4-3.3,5.8-5.8c15.9-27.6,31.9-55.2,47.8-82.9c0.4-0.7,0.8-1.4,1.3-2.3
		C183.4,87.6,177.8,84.4,172.1,81.1z"/>
	<path d="M65.3,80.1c-13.6,0-24.7-11-24.7-24.6c0-13.8,11.1-24.8,24.9-24.8c13.5,0,24.6,11.1,24.6,24.7C90.1,69.1,79,80.1,65.3,80.1
		z M80.1,55.4c0-8.3-6.6-14.8-14.9-14.8c-8.2,0-14.9,6.9-14.8,15c0.1,8.2,6.9,14.8,15.1,14.7C73.6,70.2,80.2,63.6,80.1,55.4z"/>
	<path d="M189.5,157.6c-0.4,4.4-0.4,9-1.4,13.3c-2.5,10.6-12.9,18.4-23.5,18.2c-2.3,0-4.1-1-5-3.1c-0.8-1.8-0.7-3.8,0.9-5.1
		c1-0.8,2.4-1.4,3.7-1.5c9.5-0.8,15-6.8,15.1-16.3c0-4.5,0-9,0-13.4c0-3.4,2-5.5,5-5.5c2.9,0,4.9,2.2,4.9,5.6c0,2.6,0,5.3,0,7.9
		C189.2,157.6,189.4,157.6,189.5,157.6z"/>
</g>
</svg>
