<?xml version="1.0" encoding="utf-8"?>
<!-- Generator: Adobe Illustrator 23.0.1, SVG Export Plug-In . SVG Version: 6.00 Build 0)  -->
<svg version="1.1" id="Layer_1" xmlns="http://www.w3.org/2000/svg" xmlns:xlink="http://www.w3.org/1999/xlink" x="0px" y="0px"
	 viewBox="0 0 200 200" style="enable-background:new 0 0 200 200;" xml:space="preserve">
<style type="text/css">
	.st0{fill:#FE8F25;}
</style>
<g>
	<path d="M86.6,82.4c-1.4,0-2.6-1-2.8-2.4c-1.3-8.2,5-10.7,8.4-12c5.3-2.1,8.6-6.8,8.6-12.2c0-7.1-5.8-12.9-12.9-12.9
		c-5.3,0-10,3.2-12,8.1c-0.6,1.5-2.2,2.2-3.7,1.6c-1.5-0.6-2.2-2.2-1.6-3.7c2.8-7.1,9.6-11.7,17.3-11.7c10.3,0,18.6,8.3,18.6,18.6
		c0,7.7-4.8,14.6-12.2,17.5c-4,1.6-5.4,2.4-4.9,5.8c0.2,1.5-0.8,3-2.4,3.2C86.9,82.4,86.7,82.4,86.6,82.4z"/>
</g>
<circle cx="88.1" cy="91.9" r="3.2"/>
<path d="M189.3,128.4c-2.4-2.7-5.1-5.3-7.6-7.8c-1.2-1.1-2.3-2.3-3.4-3.4c-5.2-5.2-9.9-9.8-14.3-14.1c-2.6-2.5-5.9-3.9-9.3-3.7
	c-3.3,0.2-6.4,1.8-8.7,4.5c-1,1.2-1.7,2.6-2.2,4.5c-3.5-1.6-7.3-1.7-10.5-0.2c-3.3,1.6-5.6,4.7-6.5,8.7c0,0,0,0,0,0c0,0,0,0-0.1,0
	c-6.7-1.8-12.6,1.2-14.9,7.7l-0.2-0.2c-1.5-1.5-2.9-2.9-4.4-4.4c-3.2-3.2-6.6-6.6-10-9.8c-2.9-2.8-7-3.8-10.9-2.9
	c-4,1-7.1,3.8-8.4,7.7c-1.6,4.8-0.5,9.2,3.4,13c9.4,9.4,18.9,18.7,28.4,28.1l11.1,10.9c-0.5,0-1,0-1.4,0c-2.2,0.1-4.3,0.1-6.3,0.3
	c-6.2,0.3-10.8,3.3-13.8,8.9c-1,1.8-1.5,3.9-1.7,6.2c-0.2,2.6,0.5,4.9,2,6.4c1.5,1.6,3.7,2.4,6.3,2.4l15.2,0c8.5,0,17,0,25.5,0
	c4.9,0,9.8,0,14.8,0c6.8,0,13.4-1.8,19.4-5.4c0.6-0.4,1.2-0.8,1.8-1.2c0.8-0.6,1.6-1.2,2.5-1.6l0.1-0.1l0.9-1l0-0.1l0.2,0l4.1-4.1
	l0.1-0.1c0.3-0.4,0.6-0.9,0.9-1.3c0.6-1,1.3-1.9,1.9-2.9C201.8,159.4,200.1,140.6,189.3,128.4z M131.4,171.2
	c0.8-1.8-0.2-3.2-1.2-4.1c-5.8-5.8-11.7-11.5-17.5-17.3L102,139.2c-5.4-5.4-10.8-10.7-16.2-16.1c-1.5-1.5-2.2-3-2-4.7
	c0.2-2.2,1.3-3.7,3.2-4.5c2.1-0.8,4.1-0.5,5.9,1.1c0.7,0.6,1.3,1.3,2,1.9c0.3,0.3,0.6,0.6,0.8,0.8l8.8,8.7
	c5.4,5.4,10.8,10.7,16.3,16.1c1.5,1.5,3.2,1.7,4.6,0.7c0.8-0.6,1.3-1.4,1.4-2.4c0.1-1-0.3-1.9-1-2.7c-0.9-0.9-1.8-1.8-2.8-2.8
	c-1.1-1.1-2.3-2.2-3.4-3.4c-1.3-1.4-1.9-3.2-1.6-4.9c0.3-1.7,1.4-3.1,2.9-3.8c2.1-1,4.4-0.5,6.1,1.1c1.8,1.8,3.6,3.5,5.4,5.3
	c1.2,1.2,2.5,2.5,3.7,3.7c1.4,1.4,3.1,1.6,4.5,0.6c0.8-0.6,1.3-1.4,1.4-2.4c0.1-1-0.3-2-1.2-2.9c-1-1-2-2-3-3
	c-1-0.9-1.9-1.9-2.9-2.9c-1.8-1.8-2.3-4.2-1.3-6.3c0.7-1.6,2.1-2.6,3.8-2.9c1.8-0.3,3.6,0.2,5,1.6c1.9,1.8,3.7,3.7,5.6,5.5
	c1.2,1.2,2.4,2.4,3.6,3.6c1.4,1.4,3.4,1.5,4.8,0.1c1.3-1.3,1.3-3.3-0.1-4.7c-0.7-0.7-1.4-1.4-2.1-2.1c-0.8-0.8-1.7-1.6-2.5-2.5
	c-1.4-1.4-1.9-3.3-1.6-5.1c0.3-1.7,1.5-3,3.1-3.7c2-0.8,3.8-0.6,5.5,0.8c0.2,0.1,0.4,0.3,0.6,0.5c2.4,2.4,4.9,4.8,7.3,7.2
	c5.5,5.4,11.1,10.9,16.6,16.5c10.5,10.8,12,27.5,3.5,39.8c-6.1,8.8-14.6,13.2-25.4,13.3c-12.9,0.1-26,0.1-38.7,0
	c-5.4,0-10.8,0-16.2,0l-0.3,0c-0.3,0-0.5,0-0.8,0c-1,0-1.4-0.5-1.4-1.4c0-4.9,4.1-9.1,9-9.4c5.4-0.2,10.8-0.4,14.8-0.5
	C129.1,173.2,130.7,172.9,131.4,171.2z"/>
<circle cx="61.8" cy="170.1" r="3.3"/>
<circle cx="70.7" cy="170.1" r="3.3"/>
<circle cx="61.8" cy="178.9" r="3.3"/>
<circle cx="70.7" cy="178.9" r="3.3"/>
<path d="M24,150.4l-0.2,0.1c-1.2,0.8-3,0.5-3.8-0.7l-2.2-3.2c-0.8-1.2-0.5-3,0.7-3.8l0.2-0.1c1.2-0.8,3-0.5,3.8,0.7l2.2,3.2
	C25.6,147.8,25.2,149.5,24,150.4z"/>
<path d="M30,150.4l0.2,0.1c1.2,0.8,3,0.5,3.8-0.7l2.2-3.2c0.8-1.2,0.5-3-0.7-3.8l-0.2-0.1c-1.2-0.8-3-0.5-3.8,0.7l-2.2,3.2
	C28.4,147.8,28.7,149.5,30,150.4z"/>
<path d="M24,153.7l-0.2-0.1c-1.2-0.8-3-0.5-3.8,0.7l-2.2,3.2c-0.8,1.2-0.5,3,0.7,3.8l0.2,0.1c1.2,0.8,3,0.5,3.8-0.7l2.2-3.2
	C25.6,156.2,25.2,154.5,24,153.7z"/>
<path d="M30,153.7l0.2-0.1c1.2-0.8,3-0.5,3.8,0.7l2.2,3.2c0.8,1.2,0.5,3-0.7,3.8l-0.2,0.1c-1.2,0.8-3,0.5-3.8-0.7l-2.2-3.2
	C28.4,156.2,28.7,154.5,30,153.7z"/>
<path class="st0" d="M109,17.8H66.7C39.2,17.8,17,40.1,17,67.6v0c0,27.5,22.3,49.8,49.8,49.8h1.1c0.1,0,0.1,0,0.2,0
	c1.6,0,2.9-1.3,2.9-2.9c0-1.6-1.3-2.8-2.8-2.9c-0.1,0-1.2,0-1.3,0c-24.4,0-44.1-19.8-44.1-44.1v0c0-24.4,19.8-44.1,44.1-44.1H109
	c24.4,0,44.1,19.8,44.1,44.1v0.2c0,7.8-1.7,14.4-5.2,20.7c-0.3,0.5-0.5,1-0.5,1.6c0,1.6,1.3,2.9,2.9,2.9c1.2,0,2.3-0.8,2.7-1.8
	c0,0,0,0,0,0c3.7-6.9,5.9-15,5.9-23.3v-0.2C158.8,40.1,136.5,17.8,109,17.8z"/>
<path class="st0" d="M171.6,67.7c0-34.6-28.1-62.7-62.7-62.7H66.9C32.3,5,4.2,33.1,4.2,67.7s28.1,62.7,62.7,62.7h4.2
	c0,0,0.1,0,0.1,0c0,0,0.1,0,0.1,0h0.1c0,0,0,0,0,0c1.5-0.1,2.6-1.3,2.6-2.8c0-1.6-1.3-2.9-2.9-2.9c-0.2,0-0.3,0-0.5,0c0,0,0,0,0,0
	h-3.8c-31.5,0-57-25.6-57-57s25.6-57,57-57h41.9c31.5,0,57,25.6,57,57c0,9.2-2.2,17.9-6.1,25.7c0,0,0,0,0,0
	c-0.1,0.3-0.2,0.7-0.2,1.1c0,1.6,1.3,2.9,2.9,2.9c1.3,0,2.3-0.8,2.7-2C169.2,87,171.6,77.6,171.6,67.7z"/>
</svg>
