<?xml version="1.0" encoding="utf-8"?>
<!-- Generator: Adobe Illustrator 23.0.1, SVG Export Plug-In . SVG Version: 6.00 Build 0)  -->
<svg version="1.1" id="Layer_1" xmlns="http://www.w3.org/2000/svg" xmlns:xlink="http://www.w3.org/1999/xlink" x="0px" y="0px"
	 viewBox="0 0 200 200" style="enable-background:new 0 0 200 200;" xml:space="preserve">
<g>
	<path d="M155.2,46.5c0-1.8,0-3.3,0-4.9c0.1-5.7,3.7-9.3,9.4-9.4c2.4,0,4.7,0,7.1,0c5.1,0.1,8.7,3.7,8.9,8.8c0.1,1.7,0,3.5,0,5.3
		c1.5,0.3,2.8,0.4,4.1,0.7c8,2,13.8,8.8,14,17c0.2,9.6,0.1,19.2,0.1,28.7c0,28.7,0,57.4,0,86.1c0,7.7-3,13.6-9.6,17.5
		c-2.9,1.7-6,2.4-9.3,2.4c-5.5,0-11.1,0-16.6,0c-47.6,0-95.2,0-142.8,0c-9.2,0-16.5-5.1-18.8-13.3C1.2,183.3,1,181,1,178.7
		C1,150.3,1,122,1,93.6c0-9.1,0-18.2,0-27.3c0-11.9,7.9-19.8,19.8-19.8c7.6,0,15.1-0.1,22.7,0c4.7,0,7.8-2,9.6-6.3
		c1.2-2.8,2.4-5.6,3.7-8.3c2.7-5.7,7.2-9,13.5-9c19.8-0.1,39.6-0.1,59.3,0c6.3,0,10.7,3.2,13.4,8.9c1.4,3,2.7,6.2,4.1,9.2
		C148.7,44.3,151.3,46.1,155.2,46.5z M7,92.9c0,0.8,0,1.6,0,2.3c0,27.9,0.1,55.8-0.1,83.6c-0.1,8.7,6.2,14.1,14.1,14.1
		c52.7-0.2,105.3-0.1,158-0.1c8.8,0,14-5.1,14-13.9c0-27.9,0-55.9,0-83.8c0-0.7-0.1-1.4-0.1-2.2c-16,0-31.8,0-48,0
		c8.5,12.2,12,25.5,10.1,40c-1.9,14.6-8.6,26.6-20,35.9c-19.9,16.3-48.2,16.8-68.6,1.3c-10.2-7.7-17.1-17.8-20.3-30.1
		c-4.3-16.9-1.3-32.6,8.8-47.1C38.9,92.9,23,92.9,7,92.9z M192.7,86.8c0.2-0.5,0.3-0.6,0.3-0.7c0-6.6,0.1-13.2,0-19.8
		c0-8.5-5.4-13.7-13.8-13.7c-7.8,0-15.5,0.1-23.3,0c-6.7-0.1-11.5-3.2-14.3-9.4c-1.3-2.8-2.5-5.7-3.8-8.5c-1.6-3.7-4.5-5.7-8.5-5.7
		c-19.5,0-39,0-58.5,0c-4.1,0-6.9,2-8.5,5.7c-1.2,2.8-2.4,5.5-3.7,8.3c-2.9,6.4-7.8,9.6-14.8,9.6c-7.7,0-15.4,0-23.1,0
		C12.3,52.6,7,57.7,7,66c0,6.3,0,12.6,0,18.8C7,85.4,7,86,7.1,86.7c0.7,0,1.3,0.1,1.9,0.1c16.5,0,32.9,0,49.4-0.1
		c1.1,0,2.5-0.7,3.3-1.4C82.9,65,117.1,65,138.2,85.4c1.1,1.1,2.3,1.5,3.8,1.5c16.2,0,32.4,0,48.6,0C191.3,86.8,192,86.8,192.7,86.8
		z M149.6,125.7c0-27.4-22.3-49.6-49.8-49.6c-27.3,0-49.6,22.4-49.5,49.7c0,27.4,22.4,49.6,49.8,49.6
		C127.4,175.3,149.7,153,149.6,125.7z M174.7,46.4c0-1.9,0.1-3.7,0-5.5c-0.1-1.5-1.1-2.6-2.6-2.6c-2.7-0.1-5.4-0.1-8.1,0
		c-1.5,0.1-2.6,1.1-2.7,2.6c-0.2,1.8,0,3.7,0,5.6C165.9,46.4,170.2,46.4,174.7,46.4z"/>
	<path d="M40.4,11.4c0-2.3,0-4.6,0-6.9c0-1.9,1.2-3.2,2.8-3.3c1.7-0.1,3.1,1.2,3.1,3.2c0.1,4.6,0.1,9.3,0,13.9c0,2-1.3,3.1-3,3.1
		c-1.7,0-2.9-1.2-2.9-3.2C40.4,15.9,40.4,13.6,40.4,11.4z"/>
	<path d="M19.5,38.1c-2.3,0-4.6,0-6.9,0c-2,0-3.4-1.3-3.3-3c0.1-1.7,1.3-2.8,3.3-2.8c4.6,0,9.2,0,13.8,0c2,0,3.1,1.2,3.1,2.9
		c0,1.8-1.1,2.9-3.1,2.9C24.1,38.2,21.8,38.1,19.5,38.1z"/>
	<path d="M27.3,15.8c1.1,0.7,1.9,1.1,2.6,1.7c2.3,2.2,4.6,4.5,6.9,6.8c1.6,1.6,1.7,3.3,0.4,4.6c-1.3,1.3-3,1.2-4.6-0.4
		c-2.4-2.3-4.9-4.6-7.1-7.2c-0.7-0.8-0.9-2.4-0.6-3.4C25,17.1,26.3,16.5,27.3,15.8z"/>
	<path d="M23.5,13.1c-0.3,0.4-0.8,1.5-1.6,1.8c-0.8,0.4-2.2,0.3-3-0.2c-1.2-0.7-2.3-1.8-3-3c-0.5-0.8-0.6-2.3-0.2-3.1
		c0.4-0.8,1.6-1.4,2.6-1.5C20.2,7,23.5,10.6,23.5,13.1z"/>
	<path d="M174.3,188.4c-6.3-0.1-11.3-5.3-11.2-11.7c0.1-6.2,5.4-11.2,11.8-11.1c6.2,0.1,11.1,5.3,11,11.6
		C185.9,183.5,180.7,188.5,174.3,188.4z M174.6,182.4c3,0,5.4-2.5,5.4-5.4c0-3-2.4-5.4-5.5-5.3c-3,0-5.4,2.4-5.3,5.4
		C169.2,180.1,171.6,182.4,174.6,182.4z"/>
	<path d="M24.5,188.4c-6.3,0-11.5-5.1-11.6-11.3c0-6.2,5.1-11.4,11.3-11.5c6.3-0.1,11.5,5,11.7,11.3C36,183.1,30.8,188.3,24.5,188.4
		z M29.8,177.2c0.1-2.9-2.2-5.5-5.1-5.6c-3-0.1-5.5,2.1-5.7,5c-0.2,3,2.2,5.6,5.2,5.7C27.2,182.5,29.7,180.2,29.8,177.2z"/>
	<path d="M100,57.5c-8.8,0-17.5,0-26.3,0c-6.3,0-9.6-4.9-7.1-10.7c0.6-1.5,1.3-3,2-4.4c1.3-2.9,3.6-4.5,6.8-4.5c2.5,0,5,0,7.5,0
		c13.4,0,26.7,0.1,40.1,0c4.4,0,7.4,1.6,8.9,5.8c0.5,1.3,1.1,2.5,1.6,3.7c2.1,5.2-1.2,10.2-6.8,10.3C117.8,57.6,108.9,57.5,100,57.5
		z M99.9,51.5c5.9,0,11.7,0,17.6,0c3,0,5.9,0,8.9,0c1.8,0,2.2-0.6,1.5-2.3c-0.4-1.1-1-2.1-1.4-3.1c-0.5-1.8-1.6-2.3-3.4-2.3
		c-14.4,0.1-28.8,0-43.3,0.1c-6.5,0-4.7-1.1-7.4,4.8c-1.1,2.4-0.8,2.8,1.8,2.9C82.8,51.5,91.3,51.5,99.9,51.5z"/>
	<path d="M24.4,58.3c6.3,0,11.5,5.3,11.4,11.5c-0.1,6.2-5.2,11.3-11.4,11.4C18.3,81.3,13,76.1,13,69.8
		C12.9,63.6,18.2,58.3,24.4,58.3z M29.9,69.8c0-2.9-2.4-5.4-5.4-5.5c-2.9,0-5.4,2.4-5.5,5.3c-0.1,3,2.5,5.6,5.5,5.6
		C27.4,75.2,29.8,72.8,29.9,69.8z"/>
	<path d="M186,69.8c0,6.3-5.1,11.5-11.4,11.5c-6.3,0-11.4-5.2-11.4-11.5c0-6.2,5.1-11.3,11.3-11.4C180.8,58.3,186,63.4,186,69.8z
		 M174.6,64.4c-3,0-5.4,2.4-5.4,5.4c0,3,2.3,5.4,5.3,5.5c3,0.1,5.6-2.4,5.5-5.5C180,66.8,177.5,64.4,174.6,64.4z"/>
	<path d="M100,163.3c-20.7,0-37.7-16.8-37.7-37.5C62.3,105,79.2,88,100,88.1c20.7,0.1,37.6,16.9,37.6,37.6
		C137.6,146.5,120.7,163.3,100,163.3z M68.3,125.6c0,17.5,14.2,31.8,31.6,31.8c17.3,0,31.6-14.2,31.7-31.5
		c0.1-17.6-14.2-31.9-31.7-31.9C82.5,94.1,68.4,108.3,68.3,125.6z"/>
	<path d="M119.5,124.7c0.2,1.6,0,3.2-1.7,3.6c-1,0.3-2.3-0.1-3.2-0.7c-0.6-0.3-0.8-1.5-0.9-2.3c-0.8-7.8-5.6-12.6-13.4-13.3
		c-2.1-0.2-3.3-1.3-3.2-3.1c0.1-1.9,1.4-2.9,3.6-2.9C110.7,106.3,119.1,114.6,119.5,124.7z"/>
</g>
</svg>
