<?xml version="1.0" encoding="utf-8"?>
<!-- Generator: Adobe Illustrator 23.0.1, SVG Export Plug-In . SVG Version: 6.00 Build 0)  -->
<svg version="1.1" id="Layer_1" xmlns="http://www.w3.org/2000/svg" xmlns:xlink="http://www.w3.org/1999/xlink" x="0px" y="0px"
	 viewBox="0 0 200 200" style="enable-background:new 0 0 200 200;" xml:space="preserve">
<g>
	<path d="M1,144.9c0-43.2,0-86.4,0-129.6c0-0.1,0.1-0.2,0.1-0.4C3.5,8.7,6.5,6.6,13,6.6c58,0,116,0,174,0c0.8,0,1.5,0,2.3,0.1
		c4.4,0.4,7.4,2.7,9,6.8c0.2,0.6,0.5,1.2,0.7,1.8c0,43.2,0,86.4,0,129.6c-2.8,6.9-5.3,8.6-12.8,8.6c-18.6,0-37.3,0-55.9,0
		c-0.8,0-1.5,0-2.2,0c-0.1,0.4-0.2,0.6-0.2,0.8c0,6.7,0,13.4,0,20.1c0,0.6,0.7,1.3,1.2,1.6c3.2,1.6,6.4,3.1,9.6,4.6
		c1.3,0.6,2,1.6,1.9,3c-0.1,1.8,0,3.6,0,5.4c0,3.9-0.4,4.4-4.3,4.4c-22.2,0-44.5,0-66.7,0c-2.4,0-4.8,0-7.2,0c-2.3,0-3-0.8-3-3
		c0-2.2,0.1-4.4,0-6.6c-0.1-1.7,0.7-2.6,2.1-3.3c2.9-1.3,5.8-2.8,8.7-4.1c1.4-0.6,2-1.4,2-3c-0.1-3.3,0-6.7,0-10.1
		c0-3.2,0-6.4,0-9.8c-1,0-1.7,0-2.5,0c-18.9,0-37.9,0-56.8,0c-1.4,0-2.9-0.1-4.2-0.4C4.4,151.9,2.2,148.9,1,144.9z M5.8,124.3
		c62.9,0,125.5,0,188.4,0c0-0.8,0-1.5,0-2.2c0-34.5,0-69,0-103.4c0-5.3-2-7.3-7.2-7.3c-58,0-116,0-174,0c-5.2,0-7.2,2-7.2,7.1
		c0,34.5,0,69.1,0,103.6C5.8,122.9,5.8,123.6,5.8,124.3z M77.1,175.3c15.2,0,30.4,0,45.6,0c0-7.3,0-14.5,0-21.7
		c-15.3,0-30.4,0-45.6,0C77.1,160.9,77.1,168,77.1,175.3z M109.7,138.4c0-4.4-3.5-7.8-7.9-7.8c-4.4,0-8,3.6-7.9,8
		c0,4.3,3.6,7.8,7.9,7.8C106.3,146.4,109.8,142.8,109.7,138.4z"/>
	<path d="M99.9,26c-23.2,0-46.4,0-69.6,0c-0.8,0-1.7,0.2-2.3-0.1c-0.8-0.5-1.7-1.3-2-2.2c-0.3-1.3,0.6-2.2,1.9-2.4
		c0.6-0.1,1.2-0.1,1.7-0.1c46.8,0,93.7,0,140.5,0c0.5,0,1-0.1,1.5,0c1.3,0.2,2.1,1,2.1,2.4c0,1.4-0.8,2.2-2.1,2.4
		c-0.7,0.1-1.4,0.1-2.1,0.1C146.5,26,123.2,26,99.9,26z"/>
	<path d="M99.9,115.4c-23.2,0-46.4,0-69.6,0c-0.6,0-1.3,0-1.9,0c-1.4-0.2-2.3-0.9-2.3-2.4c0-1.5,0.8-2.2,2.2-2.4
		c0.6-0.1,1.2,0,1.7,0c46.7,0,93.3,0,140,0c2.9,0,4,0.7,4,2.5c0,1.7-1.1,2.4-3.9,2.4C146.7,115.4,123.3,115.4,99.9,115.4z"/>
	<path d="M157.6,63.1c0,3.8,0,7.6,0,11.4c-0.1,7.5-6,13.4-13.4,13.5c-7.3,0.1-13.5-5.8-13.6-13.3c-0.1-7.9,0-15.7,0-23.6
		c0-2,0.9-3,2.4-3c1.5,0,2.4,1.1,2.4,3.1c0,7.7,0,15.5,0,23.2c0.1,5.8,4.7,9.6,10.3,8.7c3.4-0.6,6.3-3.4,6.8-6.8
		c0.2-1.3,0.2-2.6,0.2-3.9c0-6.6,0-13.3,0-19.9c0-0.5,0-0.9,0-1.4c0.1-2,0.9-3.1,2.5-3c1.8,0.1,2.3,1.3,2.3,2.9
		C157.6,55.1,157.6,59.1,157.6,63.1z"/>
	<path d="M28,63.1c0-4,0-8,0-12c0-2,0.9-3.1,2.4-3c1.5,0,2.3,1,2.3,3.1c0,7.9,0,15.9,0,23.8c0,3.9,2.5,7.2,6,8.4
		c3.5,1.1,7.4,0.1,9.5-3c1-1.6,1.7-3.7,1.8-5.5c0.2-7.5,0.1-15,0.1-22.4c0-0.5,0-0.9,0-1.4c0.1-1.6,0.9-2.6,2.5-2.6
		c1.5,0,2.4,1,2.4,2.5c0,8.2,0.3,16.4-0.1,24.5c-0.4,7.4-6.8,12.8-13.9,12.5c-7.4-0.3-12.9-6.2-13-13.9C28,70.4,28,66.7,28,63.1z"/>
	<path d="M75.9,62.5c2-3.9,3.9-7.6,5.8-11.2c0.3-0.6,0.6-1.1,0.9-1.7c0.7-1.4,1.9-2,3.4-1.3c1.5,0.7,1.6,2,0.9,3.5
		c-1.7,3.3-3.1,6.9-5.1,9.9c-2.9,4.3-3.1,8.2-0.1,12.6c2,2.9,3.2,6.3,4.7,9.5c0.9,1.9,0.6,3.3-0.8,4c-1.4,0.7-2.7,0.1-3.6-1.8
		C80,82,78,78,76,74c-0.1-0.1-0.2-0.2-0.4-0.4c-1.3,2.6-2.6,5.1-3.9,7.6c-0.9,1.7-1.7,3.4-2.6,5.1c-0.7,1.4-1.9,2-3.3,1.3
		c-1.5-0.8-1.6-2-0.9-3.4c2.5-4.9,4.9-9.9,7.4-14.8c0.5-1,0.5-1.8,0-2.8c-2.3-4.6-4.5-9.2-6.8-13.9c-0.1-0.3-0.3-0.6-0.4-0.9
		c-0.7-1.5-0.5-2.8,1-3.6c1.3-0.7,2.6-0.2,3.4,1.5c1.8,3.6,3.6,7.3,5.4,10.9C75.1,61.1,75.4,61.7,75.9,62.5z"/>
	<path d="M100,100.5c-1.4,0-2.5-1-2.4-2.4c0-0.7,0.3-1.4,0.5-2c7.2-19.1,14.4-38.2,21.6-57.4c0.2-0.5,0.3-1.3,0.7-1.5
		c0.9-0.5,2.1-1.2,3-0.9c0.6,0.2,1.2,1.7,1.2,2.6c0,1.1-0.7,2.2-1.1,3.3c-7,18.6-13.9,37.2-20.9,55.8
		C102.2,99.1,101.7,100.4,100,100.5z"/>
	<path d="M167.5,67.9c0-5.2,0-10.4,0-15.7c0-0.5,0-0.9,0-1.4c0.1-1.9,1-2.9,2.5-2.7c1.7,0.1,2.3,1.2,2.3,2.8c0,3.6,0,7.2,0,10.8
		c0,7.4,0,14.8,0,22.2c0,0.5,0,0.9,0,1.4c0,1.5-0.8,2.5-2.3,2.6c-1.6,0.1-2.5-1-2.5-2.6c0-4,0-8,0-12
		C167.5,71.5,167.5,69.7,167.5,67.9z"/>
	<path d="M106.7,138.3c0,2.7-2.1,4.9-4.8,5c-2.7,0.1-4.9-2.1-5-4.8c-0.1-2.7,2.1-4.9,4.8-5C104.5,133.5,106.7,135.6,106.7,138.3z"/>
</g>
</svg>
